<?xml version="1.0" encoding="UTF-8" standalone="no"?>
<svg
   height="128px"
   viewBox="0 0 128 128"
   width="128px"
   version="1.1"
   id="svg109"
   sodipodi:docname="io.github.nokse22.inspector.Devel.svg"
   inkscape:version="1.3 (0e150ed6c4, 2023-07-21)"
   xmlns:inkscape="http://www.inkscape.org/namespaces/inkscape"
   xmlns:sodipodi="http://sodipodi.sourceforge.net/DTD/sodipodi-0.dtd"
   xmlns:xlink="http://www.w3.org/1999/xlink"
   xmlns="http://www.w3.org/2000/svg"
   xmlns:svg="http://www.w3.org/2000/svg">
  <sodipodi:namedview
     id="namedview109"
     pagecolor="#ffffff"
     bordercolor="#000000"
     borderopacity="0.25"
     inkscape:showpageshadow="2"
     inkscape:pageopacity="0.0"
     inkscape:pagecheckerboard="0"
     inkscape:deskcolor="#d1d1d1"
     inkscape:zoom="4.248165"
     inkscape:cx="54.494117"
     inkscape:cy="66.499301"
     inkscape:window-width="1920"
     inkscape:window-height="1011"
     inkscape:window-x="0"
     inkscape:window-y="0"
     inkscape:window-maximized="1"
     inkscape:current-layer="svg109" />
  <defs
     id="defs61">
    <filter
       id="a"
       height="1"
       width="1"
       x="0"
       y="0">
      <feColorMatrix
         in="SourceGraphic"
         type="matrix"
         values="0 0 0 0 1 0 0 0 0 1 0 0 0 0 1 0 0 0 1 0"
         id="feColorMatrix1" />
    </filter>
    <mask
       id="b">
      <g
         filter="url(#a)"
         id="g1">
        <rect
           fill-opacity="0.3"
           height="128"
           width="128"
           id="rect1" />
      </g>
    </mask>
    <mask
       id="c">
      <g
         filter="url(#a)"
         id="g2">
        <rect
           fill-opacity="0.3"
           height="128"
           width="128"
           id="rect2" />
      </g>
    </mask>
    <clipPath
       id="d">
      <rect
         height="152"
         width="192"
         id="rect3" />
    </clipPath>
    <g
       id="e"
       clip-path="url(#d)">
      <path
         d="m 27.999969 192.00116 h 72"
         fill="none"
         stroke="#d5d3cf"
         stroke-width="2"
         transform="matrix(1 0 0 1 8.000031 -157.505066)"
         id="path3" />
      <path
         d="m 27.999969 202.00116 h 72"
         fill="none"
         stroke="#d5d3cf"
         stroke-width="2"
         transform="matrix(1 0 0 1 8.000031 -157.505066)"
         id="path4" />
      <path
         d="m 27.999969 212.00116 h 72"
         fill="none"
         stroke="#d5d3cf"
         stroke-width="2"
         transform="matrix(1 0 0 1 8.000031 -157.505066)"
         id="path5" />
      <path
         d="m 27.999969 222.00116 h 72"
         fill="none"
         stroke="#d5d3cf"
         stroke-width="2"
         transform="matrix(1 0 0 1 8.000031 -157.505066)"
         id="path6" />
      <path
         d="m 27.999969 232.00116 h 72"
         fill="none"
         stroke="#d5d3cf"
         stroke-width="2"
         transform="matrix(1 0 0 1 8.000031 -157.505066)"
         id="path7" />
      <path
         d="m 27.999969 242.00116 h 72"
         fill="none"
         stroke="#d5d3cf"
         stroke-width="2"
         transform="matrix(1 0 0 1 8.000031 -157.505066)"
         id="path8" />
      <path
         d="m 27.999969 252.00116 h 72"
         fill="none"
         stroke="#d5d3cf"
         stroke-width="2"
         transform="matrix(1 0 0 1 8.000031 -157.505066)"
         id="path9" />
      <path
         d="m 27.999969 262.00116 h 72"
         fill="none"
         stroke="#d5d3cf"
         stroke-width="2"
         transform="matrix(1 0 0 1 8.000031 -157.505066)"
         id="path10" />
      <path
         d="m 27.999969 272.00116 h 72"
         fill="none"
         stroke="#d5d3cf"
         stroke-width="2.08893"
         transform="matrix(1 0 0 1 8.000031 -157.505066)"
         id="path11" />
    </g>
    <clipPath
       id="f">
      <rect
         height="128"
         width="128"
         id="rect11" />
    </clipPath>
    <clipPath
       id="g">
      <rect
         height="128"
         width="128"
         id="rect12" />
    </clipPath>
    <mask
       id="h">
      <g
         clip-path="url(#g)"
         filter="url(#a)"
         id="g58">
        <g
           clip-path="url(#f)"
           id="g57">
          <path
             d="m 108 115.496094 h -88 c -4.417969 0 -8 -3.582032 -8 -8 v -80 c 0 -4.417969 3.582031 -8 8 -8 h 88 c 4.417969 0 8 3.582031 8 8 v 80 c 0 4.417968 -3.582031 8 -8 8 z m 0 0"
             fill="#27b41a"
             id="path12" />
          <path
             d="m 108 113.496094 h -88 c -4.417969 0 -8 -3.582032 -8 -8 v -80 c 0 -4.417969 3.582031 -8 8 -8 h 88 c 4.417969 0 8 3.582031 8 8 v 80 c 0 4.417968 -3.582031 8 -8 8 z m 0 0"
             fill="#d5d3cf"
             id="path13" />
          <path
             d="m 108 107.496094 h -88 c -4.417969 0 -8 -3.582032 -8 -8 v -80 c 0 -4.417969 3.582031 -8 8 -8 h 88 c 4.417969 0 8 3.582031 8 8 v 80 c 0 4.417968 -3.582031 8 -8 8 z m 0 0"
             fill="#f6f5f4"
             id="path14" />
          <path
             d="m 110 79.496094 c 0 1.101562 -0.894531 2 -2 2 s -2 -0.898438 -2 -2 c 0 -1.105469 0.894531 -2 2 -2 s 2 0.894531 2 2 z m 0 0"
             fill="#d5d3cf"
             id="path15" />
          <path
             d="m 110 69.496094 c 0 1.101562 -0.894531 2 -2 2 s -2 -0.898438 -2 -2 c 0 -1.105469 0.894531 -2 2 -2 s 2 0.894531 2 2 z m 0 0"
             fill="#d5d3cf"
             id="path16" />
          <path
             d="m 110 59.496094 c 0 1.101562 -0.894531 2 -2 2 s -2 -0.898438 -2 -2 c 0 -1.105469 0.894531 -2 2 -2 s 2 0.894531 2 2 z m 0 0"
             fill="#d5d3cf"
             id="path17" />
          <path
             d="m 110 49.496094 c 0 1.101562 -0.894531 2 -2 2 s -2 -0.898438 -2 -2 c 0 -1.105469 0.894531 -2 2 -2 s 2 0.894531 2 2 z m 0 0"
             fill="#d5d3cf"
             id="path18" />
          <path
             d="m 110 39.496094 c 0 1.101562 -0.894531 2 -2 2 s -2 -0.898438 -2 -2 c 0 -1.105469 0.894531 -2 2 -2 s 2 0.894531 2 2 z m 0 0"
             fill="#d5d3cf"
             id="path19" />
          <path
             d="m 110 29.496094 c 0 1.101562 -0.894531 2 -2 2 s -2 -0.898438 -2 -2 c 0 -1.105469 0.894531 -2 2 -2 s 2 0.894531 2 2 z m 0 0"
             fill="#d5d3cf"
             id="path20" />
          <path
             d="m 110 19.496094 c 0 1.101562 -0.894531 2 -2 2 s -2 -0.898438 -2 -2 c 0 -1.105469 0.894531 -2 2 -2 s 2 0.894531 2 2 z m 0 0"
             fill="#d5d3cf"
             id="path21" />
          <path
             d="m 22 99.496094 c 0 1.101562 -0.894531 2 -2 2 s -2 -0.898438 -2 -2 c 0 -1.105469 0.894531 -2 2 -2 s 2 0.894531 2 2 z m 0 0"
             fill="#d5d3cf"
             id="path22" />
          <path
             d="m 22 89.496094 c 0 1.101562 -0.894531 2 -2 2 s -2 -0.898438 -2 -2 c 0 -1.105469 0.894531 -2 2 -2 s 2 0.894531 2 2 z m 0 0"
             fill="#d5d3cf"
             id="path23" />
          <path
             d="m 22 79.496094 c 0 1.101562 -0.894531 2 -2 2 s -2 -0.898438 -2 -2 c 0 -1.105469 0.894531 -2 2 -2 s 2 0.894531 2 2 z m 0 0"
             fill="#d5d3cf"
             id="path24" />
          <path
             d="m 22 69.496094 c 0 1.101562 -0.894531 2 -2 2 s -2 -0.898438 -2 -2 c 0 -1.105469 0.894531 -2 2 -2 s 2 0.894531 2 2 z m 0 0"
             fill="#d5d3cf"
             id="path25" />
          <path
             d="m 22 59.496094 c 0 1.101562 -0.894531 2 -2 2 s -2 -0.898438 -2 -2 c 0 -1.105469 0.894531 -2 2 -2 s 2 0.894531 2 2 z m 0 0"
             fill="#d5d3cf"
             id="path26" />
          <path
             d="m 22 49.496094 c 0 1.101562 -0.894531 2 -2 2 s -2 -0.898438 -2 -2 c 0 -1.105469 0.894531 -2 2 -2 s 2 0.894531 2 2 z m 0 0"
             fill="#d5d3cf"
             id="path27" />
          <path
             d="m 22 39.496094 c 0 1.101562 -0.894531 2 -2 2 s -2 -0.898438 -2 -2 c 0 -1.105469 0.894531 -2 2 -2 s 2 0.894531 2 2 z m 0 0"
             fill="#d5d3cf"
             id="path28" />
          <path
             d="m 22 29.496094 c 0 1.101562 -0.894531 2 -2 2 s -2 -0.898438 -2 -2 c 0 -1.105469 0.894531 -2 2 -2 s 2 0.894531 2 2 z m 0 0"
             fill="#d5d3cf"
             id="path29" />
          <path
             d="m 22 19.496094 c 0 1.101562 -0.894531 2 -2 2 s -2 -0.898438 -2 -2 c 0 -1.105469 0.894531 -2 2 -2 s 2 0.894531 2 2 z m 0 0"
             fill="#d5d3cf"
             id="path30" />
          <use
             mask="url(#c)"
             transform="matrix(1 0 0 1 -8 -16)"
             xlink:href="#e"
             id="use30" />
          <path
             d="m -366.625977 784.044128 l -0.003906 -2.476562"
             fill="#0fab00"
             stroke="#0fab00"
             stroke-linecap="round"
             stroke-linejoin="round"
             stroke-width="0.755906"
             transform="matrix(1 0 0 1 427.969727 -691.505066)"
             id="path31" />
          <path
             d="m 81.207031 18.816406 c -3.847656 0.140625 0.695313 5.074219 -6.066406 5.78125 c -7.722656 0.8125 -2.160156 -6.835937 -9.253906 -3.675781 c -7.097657 3.160156 2.3125 4.140625 -3.460938 9.335937 c -5.773437 5.199219 -5.761719 -4.261718 -9.648437 2.464844 c -3.882813 6.730469 4.304687 1.992188 2.691406 9.589844 c -1.617188 7.597656 -7.171875 -0.058594 -6.359375 7.664062 c 0.8125 7.726563 4.652344 -0.917968 7.8125 6.175782 c 3.160156 7.097656 -5.835937 4.167968 -0.636719 9.9375 c 5.195313 5.773437 3.222656 -3.476563 9.949219 0.40625 c 6.726563 3.882812 -2.269531 6.800781 5.328125 8.414062 c 7.597656 1.617188 0.5625 -4.707031 8.285156 -5.519531 c 7.726563 -0.8125 2.160156 6.835937 9.257813 3.675781 c 7.09375 -3.15625 -2.316407 -4.136718 3.457031 -9.335937 s 5.765625 4.261719 9.648438 -2.464844 c 3.886718 -6.726563 -4.304688 -1.988281 -2.6875 -9.589844 c 1.613281 -7.597656 7.167968 0.0625 6.355468 -7.664062 c -0.8125 -7.726563 -4.652344 0.921875 -7.8125 -6.175781 c -3.160156 -7.097657 5.835938 -4.167969 0.640625 -9.941407 c -5.199219 -5.769531 -3.226562 3.480469 -9.953125 -0.402343 c -6.726562 -3.882813 2.273438 -6.800782 -5.324218 -8.414063 c -0.949219 -0.203125 -1.671876 -0.28125 -2.222657 -0.261719 z m -3.710937 17.820313 c 5.71875 0 10.355468 4.636719 10.355468 10.355469 c 0 5.722656 -4.636718 10.359374 -10.355468 10.359374 c -5.722656 0 -10.359375 -4.636718 -10.359375 -10.359374 c 0.003906 -5.71875 4.640625 -10.355469 10.359375 -10.355469 z m 0 0"
             fill="#0fab00"
             id="path32" />
          <path
             d="m -324.314673 802.716118 l -0.003907 -2.476563"
             fill="#0fab00"
             stroke="#0fab00"
             stroke-linecap="round"
             stroke-linejoin="round"
             stroke-width="0.755906"
             transform="matrix(1 0 0 1 415.822486 -732.00518)"
             id="path33" />
          <path
             d="m -312.935767 790.415337 l -0.003906 -2.480469"
             fill="#0fab00"
             stroke="#0fab00"
             stroke-linecap="round"
             stroke-linejoin="round"
             stroke-width="0.755906"
             transform="matrix(1 0 0 1 415.822486 -732.00518)"
             id="path34" />
          <path
             d="m 64.238281 33.136719 v 13.855469 h 2.898438 c 0.003906 -5.71875 4.640625 -10.355469 10.359375 -10.355469 s 10.355468 4.636719 10.355468 10.355469 h 3.46875 v -13.855469 z m 0 0"
             fill="#187c0e"
             id="path35" />
          <path
             d="m -352.345923 755.470024 l -0.003907 -2.476562"
             fill="#0fab00"
             stroke="#0fab00"
             stroke-linecap="round"
             stroke-linejoin="round"
             stroke-width="0.755906"
             transform="matrix(1 0 0 1 415.822486 -732.00518)"
             id="path36" />
          <path
             d="m -363.717017 767.634087 l -0.003906 -2.476563"
             fill="#0fab00"
             stroke="#0fab00"
             stroke-linecap="round"
             stroke-linejoin="round"
             stroke-width="0.755906"
             transform="matrix(1 0 0 1 415.822486 -732.00518)"
             id="path37" />
          <path
             d="m -360.806861 795.337212 l -0.003906 -2.480469"
             fill="#0fab00"
             stroke="#0fab00"
             stroke-linecap="round"
             stroke-linejoin="round"
             stroke-width="0.755906"
             transform="matrix(1 0 0 1 415.822486 -732.00518)"
             id="path38" />
          <path
             d="m -347.123267 804.927055 l -0.003906 -2.476562"
             fill="#0fab00"
             stroke="#0fab00"
             stroke-linecap="round"
             stroke-linejoin="round"
             stroke-width="0.755906"
             transform="matrix(1 0 0 1 415.822486 -732.00518)"
             id="path39" />
          <path
             d="m -310.240455 777.700493 l -0.003906 -2.476563"
             fill="#0fab00"
             stroke="#0fab00"
             stroke-linecap="round"
             stroke-linejoin="round"
             stroke-width="0.755906"
             transform="matrix(1 0 0 1 415.822486 -732.00518)"
             id="path40" />
          <path
             d="m -315.834205 762.829399 l -0.007812 -2.476562"
             fill="#0fab00"
             stroke="#0fab00"
             stroke-linecap="round"
             stroke-linejoin="round"
             stroke-width="0.755906"
             transform="matrix(1 0 0 1 415.822486 -732.00518)"
             id="path41" />
          <path
             d="m -329.509986 753.188774 l -0.003906 -2.476562"
             fill="#0fab00"
             stroke="#0fab00"
             stroke-linecap="round"
             stroke-linejoin="round"
             stroke-width="0.755906"
             transform="matrix(1 0 0 1 415.822486 -732.00518)"
             id="path42" />
          <path
             d="m 81.207031 16.492188 c -3.847656 0.140624 0.695313 5.070312 -6.066406 5.78125 c -7.722656 0.8125 -2.160156 -6.835938 -9.253906 -3.675782 c -7.097657 3.160156 2.3125 4.140625 -3.460938 9.335938 c -5.773437 5.199218 -5.761719 -4.261719 -9.648437 2.464844 c -3.882813 6.726562 4.304687 1.992187 2.691406 9.589843 c -1.617188 7.597657 -7.171875 -0.058593 -6.359375 7.664063 c 0.8125 7.726562 4.652344 -0.917969 7.8125 6.175781 c 3.160156 7.097656 -5.835937 4.164063 -0.636719 9.9375 c 5.195313 5.773437 3.222656 -3.480469 9.949219 0.40625 c 6.726563 3.882813 -2.269531 6.800781 5.328125 8.414063 c 7.597656 1.617187 0.5625 -4.707032 8.285156 -5.519532 c 7.726563 -0.8125 2.160156 6.835938 9.257813 3.675782 c 7.09375 -3.160157 -2.316407 -4.140626 3.457031 -9.335938 c 5.773438 -5.199219 5.765625 4.261719 9.648438 -2.464844 c 3.886718 -6.726562 -4.304688 -1.992187 -2.6875 -9.589844 c 1.613281 -7.597656 7.167968 0.058594 6.355468 -7.664062 c -0.8125 -7.726562 -4.652344 0.917969 -7.8125 -6.175781 c -3.160156 -7.097657 5.835938 -4.167969 0.640625 -9.941407 c -5.199219 -5.773437 -3.226562 3.480469 -9.953125 -0.402343 c -6.726562 -3.886719 2.273438 -6.800781 -5.324218 -8.414063 c -0.949219 -0.203125 -1.671876 -0.28125 -2.222657 -0.261718 z m -3.710937 17.820312 c 5.71875 0 10.355468 4.636719 10.355468 10.355469 c 0 5.722656 -4.636718 10.359375 -10.355468 10.359375 c -5.722656 0 -10.359375 -4.636719 -10.359375 -10.359375 c 0.003906 -5.71875 4.640625 -10.355469 10.359375 -10.355469 z m 0 0"
             fill="#19cf08"
             id="path43" />
          <path
             d="m 47.496094 67.835938 c -2.421875 0.085937 0.4375 3.191406 -3.820313 3.636718 c -4.863281 0.511719 -1.359375 -4.304687 -5.824219 -2.3125 c -4.46875 1.988282 1.453126 2.605469 -2.179687 5.878906 c -3.632813 3.269532 -3.628906 -2.683593 -6.074219 1.550782 c -2.445312 4.234375 2.710938 1.25 1.695313 6.035156 c -1.019531 4.785156 -4.515625 -0.039062 -4.003907 4.828125 c 0.511719 4.863281 2.929688 -0.582031 4.917969 3.886719 s -3.675781 2.621094 -0.402343 6.253906 c 3.273437 3.636719 2.03125 -2.1875 6.265624 0.257812 c 4.234376 2.445313 -1.429687 4.28125 3.351563 5.296876 c 4.785156 1.015624 0.355469 -2.964844 5.21875 -3.476563 s 1.359375 4.304687 5.828125 2.316406 c 4.464844 -1.988281 -1.457031 -2.605469 2.175781 -5.878906 c 3.636719 -3.273437 3.628907 2.683594 6.074219 -1.550781 c 2.445312 -4.238282 -2.710938 -1.253906 -1.691406 -6.039063 c 1.015625 -4.78125 4.511718 0.039063 4 -4.824219 c -0.511719 -4.863281 -2.929688 0.578126 -4.917969 -3.886718 c -1.988281 -4.46875 3.675781 -2.625 0.402344 -6.257813 c -3.273438 -3.636719 -2.027344 2.1875 -6.265625 -0.257812 c -4.234375 -2.441407 1.433594 -4.277344 -3.351563 -5.296875 c -0.597656 -0.125 -1.050781 -0.175782 -1.398437 -0.160156 z m -2.335938 11.21875 c 3.597656 0 6.519532 2.917968 6.519532 6.519531 c 0 3.597656 -2.917969 6.519531 -6.519532 6.519531 c -3.601562 0 -6.523437 -2.921875 -6.523437 -6.519531 c 0.003906 -3.601563 2.921875 -6.519531 6.523437 -6.519531 z m 0 0"
             fill="#0057ab"
             id="path44" />
          <path
             d="m -324.314521 802.716586 l -0.006205 -2.4757"
             fill="#0057ab"
             stroke="#0057ab"
             stroke-linecap="round"
             stroke-linejoin="round"
             stroke-width="0.755906"
             transform="matrix(0.629557 0 0 0.629557 258.154892 -404.851807)"
             id="path45" />
          <path
             d="m -312.934988 790.412544 l -0.006205 -2.4757"
             fill="#0057ab"
             stroke="#0057ab"
             stroke-linecap="round"
             stroke-linejoin="round"
             stroke-width="0.755906"
             transform="matrix(0.629557 0 0 0.629557 258.154892 -404.851807)"
             id="path46" />
          <path
             d="m 36.8125 76.851562 v 8.722657 h 1.824219 c 0.003906 -3.601563 2.921875 -6.519531 6.523437 -6.519531 c 3.597656 0 6.519532 2.917968 6.519532 6.519531 h 2.183593 v -8.722657 z m 0 0"
             fill="#043b70"
             id="path47" />
          <path
             d="m -352.347633 755.473532 v -2.481905"
             fill="none"
             stroke="#0057ab"
             stroke-linecap="round"
             stroke-linejoin="round"
             stroke-width="0.755906"
             transform="matrix(0.629557 0 0 0.629557 258.154892 -404.851807)"
             id="path48" />
          <path
             d="m -363.714756 767.634864 l -0.006205 -2.481904"
             fill="none"
             stroke="#0057ab"
             stroke-linecap="round"
             stroke-linejoin="round"
             stroke-width="0.755906"
             transform="matrix(0.629557 0 0 0.629557 258.154892 -404.851807)"
             id="path49" />
          <path
             d="m -360.804723 795.33292 l -0.006205 -2.4757"
             fill="#0057ab"
             stroke="#0057ab"
             stroke-linecap="round"
             stroke-linejoin="round"
             stroke-width="0.755906"
             transform="matrix(0.629557 0 0 0.629557 258.154892 -404.851807)"
             id="path50" />
          <path
             d="m -347.123224 804.925481 l -0.006205 -2.4757"
             fill="#0057ab"
             stroke="#0057ab"
             stroke-linecap="round"
             stroke-linejoin="round"
             stroke-width="0.755906"
             transform="matrix(0.629557 0 0 0.629557 258.154892 -404.851807)"
             id="path51" />
          <path
             d="m -310.242122 777.698987 v -2.475699"
             fill="none"
             stroke="#0057ab"
             stroke-linecap="round"
             stroke-linejoin="round"
             stroke-width="0.755906"
             transform="matrix(0.629557 0 0 0.629557 258.154892 -404.851807)"
             id="path52" />
          <path
             d="m -315.838817 762.826174 v -2.4757"
             fill="none"
             stroke="#0057ab"
             stroke-linecap="round"
             stroke-linejoin="round"
             stroke-width="0.755906"
             transform="matrix(0.629557 0 0 0.629557 258.154892 -404.851807)"
             id="path53" />
          <path
             d="m -329.514111 753.19018 v -2.4757"
             fill="none"
             stroke="#0057ab"
             stroke-linecap="round"
             stroke-linejoin="round"
             stroke-width="0.755906"
             transform="matrix(0.629557 0 0 0.629557 258.154892 -404.851807)"
             id="path54" />
          <path
             d="m 47.496094 66.371094 c -2.421875 0.085937 0.4375 3.191406 -3.820313 3.640625 c -4.863281 0.507812 -1.359375 -4.304688 -5.824219 -2.316407 c -4.46875 1.988282 1.453126 2.605469 -2.179687 5.878907 c -3.632813 3.273437 -3.628906 -2.683594 -6.074219 1.550781 c -2.445312 4.234375 2.710938 1.253906 1.695313 6.035156 c -1.019531 4.785156 -4.515625 -0.035156 -4.003907 4.828125 c 0.511719 4.863281 2.929688 -0.582031 4.917969 3.886719 s -3.675781 2.621094 -0.402343 6.257812 c 3.273437 3.632813 2.03125 -2.191406 6.265624 0.253907 c 4.234376 2.445312 -1.429687 4.28125 3.351563 5.296875 c 4.785156 1.019531 0.355469 -2.964844 5.21875 -3.476563 c 4.863281 -0.507812 1.359375 4.304688 5.828125 2.316407 c 4.464844 -1.988282 -1.457031 -2.605469 2.175781 -5.878907 c 3.636719 -3.273437 3.628907 2.683594 6.074219 -1.550781 s -2.710938 -1.253906 -1.691406 -6.035156 c 1.015625 -4.785156 4.511718 0.035156 4 -4.828125 c -0.511719 -4.863281 -2.929688 0.582031 -4.917969 -3.886719 s 3.675781 -2.625 0.402344 -6.257812 c -3.273438 -3.632813 -2.027344 2.191406 -6.265625 -0.253907 c -4.234375 -2.445312 1.433594 -4.28125 -3.351563 -5.296875 c -0.597656 -0.128906 -1.050781 -0.175781 -1.398437 -0.164062 z m -2.335938 11.21875 c 3.597656 0 6.519532 2.917968 6.519532 6.519531 s -2.917969 6.519531 -6.519532 6.519531 c -3.601562 0 -6.523437 -2.917968 -6.523437 -6.519531 c 0.003906 -3.601563 2.921875 -6.519531 6.523437 -6.519531 z m 0 0"
             fill="#3e96ff"
             id="path55" />
          <path
             d="m 110 99.496094 c 0 1.101562 -0.894531 2 -2 2 s -2 -0.898438 -2 -2 c 0 -1.105469 0.894531 -2 2 -2 s 2 0.894531 2 2 z m 0 0"
             fill="#d5d3cf"
             id="path56" />
          <path
             d="m 110 89.496094 c 0 1.101562 -0.894531 2 -2 2 s -2 -0.898438 -2 -2 c 0 -1.105469 0.894531 -2 2 -2 s 2 0.894531 2 2 z m 0 0"
             fill="#d5d3cf"
             id="path57" />
        </g>
      </g>
    </mask>
    <mask
       id="i">
      <g
         filter="url(#a)"
         id="g59">
        <rect
           fill-opacity="0.8"
           height="128"
           width="128"
           id="rect58" />
      </g>
    </mask>
    <linearGradient
       id="j"
       gradientTransform="matrix(0 0.37 -0.98462 0 295.38501 -30.360001)"
       gradientUnits="userSpaceOnUse"
       x1="300"
       x2="428"
       y1="235"
       y2="235">
      <stop
         offset="0"
         stop-color="#f9f06b"
         id="stop59" />
      <stop
         offset="1"
         stop-color="#f5c211"
         id="stop60" />
    </linearGradient>
    <clipPath
       id="k">
      <rect
         height="128"
         width="128"
         id="rect60" />
    </clipPath>
    <clipPath
       id="l">
      <rect
         height="128"
         width="128"
         id="rect61" />
    </clipPath>
  </defs>
  <path
     d="m 108 115.496094 h -88 c -4.417969 0 -8 -3.582032 -8 -8 v -80 c 0 -4.417969 3.582031 -8 8 -8 h 88 c 4.417969 0 8 3.582031 8 8 v 80 c 0 4.417968 -3.582031 8 -8 8 z m 0 0"
     fill="#27b41a"
     id="path61" />
  <path
     d="m 108 113.496094 h -88 c -4.417969 0 -8 -3.582032 -8 -8 v -80 c 0 -4.417969 3.582031 -8 8 -8 h 88 c 4.417969 0 8 3.582031 8 8 v 80 c 0 4.417968 -3.582031 8 -8 8 z m 0 0"
     fill="#d5d3cf"
     id="path62" />
  <path
     d="m 108 107.496094 h -88 c -4.417969 0 -8 -3.582032 -8 -8 v -80 c 0 -4.417969 3.582031 -8 8 -8 h 88 c 4.417969 0 8 3.582031 8 8 v 80 c 0 4.417968 -3.582031 8 -8 8 z m 0 0"
     fill="#f6f5f4"
     id="path63" />
  <use
     mask="url(#b)"
     transform="matrix(1 0 0 1 -8 -16)"
     xlink:href="#e"
     id="use79" />
  <path
     d="m 110 99.496094 c 0 1.101562 -0.894531 2 -2 2 s -2 -0.898438 -2 -2 c 0 -1.105469 0.894531 -2 2 -2 s 2 0.894531 2 2 z m 0 0"
     fill="#d5d3cf"
     id="path105" />
  <g
     fill="#d5d3cf"
     id="g79">
    <path
       d="m 110 79.496094 c 0 1.101562 -0.894531 2 -2 2 s -2 -0.898438 -2 -2 c 0 -1.105469 0.894531 -2 2 -2 s 2 0.894531 2 2 z m 0 0"
       id="path64" />
    <path
       d="m 110 69.496094 c 0 1.101562 -0.894531 2 -2 2 s -2 -0.898438 -2 -2 c 0 -1.105469 0.894531 -2 2 -2 s 2 0.894531 2 2 z m 0 0"
       id="path65" />
    <path
       d="m 110 59.496094 c 0 1.101562 -0.894531 2 -2 2 s -2 -0.898438 -2 -2 c 0 -1.105469 0.894531 -2 2 -2 s 2 0.894531 2 2 z m 0 0"
       id="path66" />
    <path
       d="m 110 49.496094 c 0 1.101562 -0.894531 2 -2 2 s -2 -0.898438 -2 -2 c 0 -1.105469 0.894531 -2 2 -2 s 2 0.894531 2 2 z m 0 0"
       id="path67" />
    <path
       d="m 110 39.496094 c 0 1.101562 -0.894531 2 -2 2 s -2 -0.898438 -2 -2 c 0 -1.105469 0.894531 -2 2 -2 s 2 0.894531 2 2 z m 0 0"
       id="path68" />
    <path
       d="m 110 29.496094 c 0 1.101562 -0.894531 2 -2 2 s -2 -0.898438 -2 -2 c 0 -1.105469 0.894531 -2 2 -2 s 2 0.894531 2 2 z m 0 0"
       id="path69" />
    <path
       d="m 110 19.496094 c 0 1.101562 -0.894531 2 -2 2 s -2 -0.898438 -2 -2 c 0 -1.105469 0.894531 -2 2 -2 s 2 0.894531 2 2 z m 0 0"
       id="path70" />
    <path
       d="m 22 99.496094 c 0 1.101562 -0.894531 2 -2 2 s -2 -0.898438 -2 -2 c 0 -1.105469 0.894531 -2 2 -2 s 2 0.894531 2 2 z m 0 0"
       id="path71" />
    <path
       d="m 22 89.496094 c 0 1.101562 -0.894531 2 -2 2 s -2 -0.898438 -2 -2 c 0 -1.105469 0.894531 -2 2 -2 s 2 0.894531 2 2 z m 0 0"
       id="path72" />
    <path
       d="m 22 79.496094 c 0 1.101562 -0.894531 2 -2 2 s -2 -0.898438 -2 -2 c 0 -1.105469 0.894531 -2 2 -2 s 2 0.894531 2 2 z m 0 0"
       id="path73" />
    <path
       d="m 22 69.496094 c 0 1.101562 -0.894531 2 -2 2 s -2 -0.898438 -2 -2 c 0 -1.105469 0.894531 -2 2 -2 s 2 0.894531 2 2 z m 0 0"
       id="path74" />
    <path
       d="m 22 59.496094 c 0 1.101562 -0.894531 2 -2 2 s -2 -0.898438 -2 -2 c 0 -1.105469 0.894531 -2 2 -2 s 2 0.894531 2 2 z m 0 0"
       id="path75" />
    <path
       d="m 22 49.496094 c 0 1.101562 -0.894531 2 -2 2 s -2 -0.898438 -2 -2 c 0 -1.105469 0.894531 -2 2 -2 s 2 0.894531 2 2 z m 0 0"
       id="path76" />
    <path
       d="m 22 39.496094 c 0 1.101562 -0.894531 2 -2 2 s -2 -0.898438 -2 -2 c 0 -1.105469 0.894531 -2 2 -2 s 2 0.894531 2 2 z m 0 0"
       id="path77" />
    <path
       d="m 22 29.496094 c 0 1.101562 -0.894531 2 -2 2 s -2 -0.898438 -2 -2 c 0 -1.105469 0.894531 -2 2 -2 s 2 0.894531 2 2 z m 0 0"
       id="path78" />
    <path
       d="m 22 19.496094 c 0 1.101562 -0.894531 2 -2 2 s -2 -0.898438 -2 -2 c 0 -1.105469 0.894531 -2 2 -2 s 2 0.894531 2 2 z m 0 0"
       id="path79" />
  </g>
  <path
     d="m 110 89.496094 c 0 1.101562 -0.894531 2 -2 2 s -2 -0.898438 -2 -2 c 0 -1.105469 0.894531 -2 2 -2 s 2 0.894531 2 2 z m 0 0"
     fill="#d5d3cf"
     id="path106" />
  <g
     clip-path="url(#l)"
     mask="url(#h)"
     id="g109">
    <g
       clip-path="url(#k)"
       mask="url(#i)"
       id="g108">
      <path
         d="m 128 80.640625 v 47.359375 h -128 v -47.359375 z m 0 0"
         fill="url(#j)"
         id="path107" />
      <path
         d="m 13.308594 80.640625 l 47.355468 47.359375 h 21.214844 l -47.359375 -47.359375 z m 42.421875 0 l 47.363281 47.359375 h 21.214844 l -47.363282 -47.359375 z m 42.429687 0 l 29.839844 29.839844 v -21.210938 l -8.628906 -8.628906 z m -98.160156 7.90625 v 21.214844 l 18.238281 18.238281 h 21.214844 z m 0 0"
         id="path108" />
    </g>
  </g>
  <path
     d="m 81.207031 18.816406 c -3.847656 0.140625 0.695313 5.074219 -6.066406 5.78125 c -7.722656 0.8125 -2.160156 -6.835937 -9.253906 -3.675781 c -7.097657 3.160156 2.3125 4.140625 -3.460938 9.335937 c -5.773437 5.199219 -5.761719 -4.261718 -9.648437 2.464844 c -3.882813 6.730469 4.304687 1.992188 2.691406 9.589844 c -1.617188 7.597656 -7.171875 -0.058594 -6.359375 7.664062 c 0.8125 7.726563 4.652344 -0.917968 7.8125 6.175782 c 3.160156 7.097656 -5.835937 4.167968 -0.636719 9.9375 c 5.195313 5.773437 3.222656 -3.476563 9.949219 0.40625 c 6.726563 3.882812 -2.269531 6.800781 5.328125 8.414062 c 7.597656 1.617188 0.5625 -4.707031 8.285156 -5.519531 c 7.726563 -0.8125 2.160156 6.835937 9.257813 3.675781 c 7.09375 -3.15625 -2.316407 -4.136718 3.457031 -9.335937 s 5.765625 4.261719 9.648438 -2.464844 c 3.886718 -6.726563 -4.304688 -1.988281 -2.6875 -9.589844 c 1.613281 -7.597656 7.167968 0.0625 6.355468 -7.664062 c -0.8125 -7.726563 -4.652344 0.921875 -7.8125 -6.175781 c -3.160156 -7.097657 5.835938 -4.167969 0.640625 -9.941407 c -5.199219 -5.769531 -3.226562 3.480469 -9.953125 -0.402343 c -6.726562 -3.882813 2.273438 -6.800782 -5.324218 -8.414063 c -0.949219 -0.203125 -1.671876 -0.28125 -2.222657 -0.261719 z m -3.710937 17.820313 c 5.71875 0 10.355468 4.636719 10.355468 10.355469 c 0 5.722656 -4.636718 10.359374 -10.355468 10.359374 c -5.722656 0 -10.359375 -4.636718 -10.359375 -10.359374 c 0.003906 -5.71875 4.640625 -10.355469 10.359375 -10.355469 z m 0 0"
     fill="#0fab00"
     id="path81" />
  <path
     d="m 91.507813 70.710938 l -0.003907 -2.476563"
     fill="#0fab00"
     stroke="#0fab00"
     stroke-linecap="round"
     stroke-linejoin="round"
     stroke-width="0.755906"
     id="path82" />
  <path
     d="m 102.886719 58.410157 l -0.003906 -2.480469"
     fill="#0fab00"
     stroke="#0fab00"
     stroke-linecap="round"
     stroke-linejoin="round"
     stroke-width="0.755906"
     id="path83" />
  <path
     d="m 64.238281 33.136719 v 13.855469 h 2.898438 c 0.003906 -5.71875 4.640625 -10.355469 10.359375 -10.355469 s 10.355468 4.636719 10.355468 10.355469 h 3.46875 v -13.855469 z m 0 0"
     fill="#187c0e"
     id="path84" />
  <path
     d="m 63.476563 23.464844 l -0.003907 -2.476562"
     fill="#0fab00"
     stroke="#0fab00"
     stroke-linecap="round"
     stroke-linejoin="round"
     stroke-width="0.755906"
     id="path85" />
  <path
     d="m 52.105469 35.628907 l -0.003906 -2.476563"
     fill="#0fab00"
     stroke="#0fab00"
     stroke-linecap="round"
     stroke-linejoin="round"
     stroke-width="0.755906"
     id="path86" />
  <path
     d="m 55.015625 63.332032 l -0.003906 -2.480469"
     fill="#0fab00"
     stroke="#0fab00"
     stroke-linecap="round"
     stroke-linejoin="round"
     stroke-width="0.755906"
     id="path87" />
  <path
     d="m 68.699219 72.921875 l -0.003906 -2.476562"
     fill="#0fab00"
     stroke="#0fab00"
     stroke-linecap="round"
     stroke-linejoin="round"
     stroke-width="0.755906"
     id="path88" />
  <path
     d="m 105.582031 45.695313 l -0.003906 -2.476563"
     fill="#0fab00"
     stroke="#0fab00"
     stroke-linecap="round"
     stroke-linejoin="round"
     stroke-width="0.755906"
     id="path89" />
  <path
     d="m 99.988281 30.824219 l -0.007812 -2.476562"
     fill="#0fab00"
     stroke="#0fab00"
     stroke-linecap="round"
     stroke-linejoin="round"
     stroke-width="0.755906"
     id="path90" />
  <path
     d="m 86.3125 21.183594 l -0.003906 -2.476562"
     fill="#0fab00"
     stroke="#0fab00"
     stroke-linecap="round"
     stroke-linejoin="round"
     stroke-width="0.755906"
     id="path91" />
  <path
     d="m 81.207031 16.492188 c -3.847656 0.140624 0.695313 5.070312 -6.066406 5.78125 c -7.722656 0.8125 -2.160156 -6.835938 -9.253906 -3.675782 c -7.097657 3.160156 2.3125 4.140625 -3.460938 9.335938 c -5.773437 5.199218 -5.761719 -4.261719 -9.648437 2.464844 c -3.882813 6.726562 4.304687 1.992187 2.691406 9.589843 c -1.617188 7.597657 -7.171875 -0.058593 -6.359375 7.664063 c 0.8125 7.726562 4.652344 -0.917969 7.8125 6.175781 c 3.160156 7.097656 -5.835937 4.164063 -0.636719 9.9375 c 5.195313 5.773437 3.222656 -3.480469 9.949219 0.40625 c 6.726563 3.882813 -2.269531 6.800781 5.328125 8.414063 c 7.597656 1.617187 0.5625 -4.707032 8.285156 -5.519532 c 7.726563 -0.8125 2.160156 6.835938 9.257813 3.675782 c 7.09375 -3.160157 -2.316407 -4.140626 3.457031 -9.335938 c 5.773438 -5.199219 5.765625 4.261719 9.648438 -2.464844 c 3.886718 -6.726562 -4.304688 -1.992187 -2.6875 -9.589844 c 1.613281 -7.597656 7.167968 0.058594 6.355468 -7.664062 c -0.8125 -7.726562 -4.652344 0.917969 -7.8125 -6.175781 c -3.160156 -7.097657 5.835938 -4.167969 0.640625 -9.941407 c -5.199219 -5.773437 -3.226562 3.480469 -9.953125 -0.402343 c -6.726562 -3.886719 2.273438 -6.800781 -5.324218 -8.414063 c -0.949219 -0.203125 -1.671876 -0.28125 -2.222657 -0.261718 z m -3.710937 17.820312 c 5.71875 0 10.355468 4.636719 10.355468 10.355469 c 0 5.722656 -4.636718 10.359375 -10.355468 10.359375 c -5.722656 0 -10.359375 -4.636719 -10.359375 -10.359375 c 0.003906 -5.71875 4.640625 -10.355469 10.359375 -10.355469 z m 0 0"
     fill="#19cf08"
     id="path92" />
  <path
     d="m 47.496094 67.835938 c -2.421875 0.085937 0.4375 3.191406 -3.820313 3.636718 c -4.863281 0.511719 -1.359375 -4.304687 -5.824219 -2.3125 c -4.46875 1.988282 1.453126 2.605469 -2.179687 5.878906 c -3.632813 3.269532 -3.628906 -2.683593 -6.074219 1.550782 c -2.445312 4.234375 2.710938 1.25 1.695313 6.035156 c -1.019531 4.785156 -4.515625 -0.039062 -4.003907 4.828125 c 0.511719 4.863281 2.929688 -0.582031 4.917969 3.886719 s -3.675781 2.621094 -0.402343 6.253906 c 3.273437 3.636719 2.03125 -2.1875 6.265624 0.257812 c 4.234376 2.445313 -1.429687 4.28125 3.351563 5.296876 c 4.785156 1.015624 0.355469 -2.964844 5.21875 -3.476563 s 1.359375 4.304687 5.828125 2.316406 c 4.464844 -1.988281 -1.457031 -2.605469 2.175781 -5.878906 c 3.636719 -3.273437 3.628907 2.683594 6.074219 -1.550781 c 2.445312 -4.238282 -2.710938 -1.253906 -1.691406 -6.039063 c 1.015625 -4.78125 4.511718 0.039063 4 -4.824219 c -0.511719 -4.863281 -2.929688 0.578126 -4.917969 -3.886718 c -1.988281 -4.46875 3.675781 -2.625 0.402344 -6.257813 c -3.273438 -3.636719 -2.027344 2.1875 -6.265625 -0.257812 c -4.234375 -2.441407 1.433594 -4.277344 -3.351563 -5.296875 c -0.597656 -0.125 -1.050781 -0.175782 -1.398437 -0.160156 z m -2.335938 11.21875 c 3.597656 0 6.519532 2.917968 6.519532 6.519531 c 0 3.597656 -2.917969 6.519531 -6.519532 6.519531 c -3.601562 0 -6.523437 -2.921875 -6.523437 -6.519531 c 0.003906 -3.601563 2.921875 -6.519531 6.523437 -6.519531 z m 0 0"
     fill="#0057ab"
     id="path93" />
  <path
     d="m 53.9804151028 100.5040387324 l -0.00390640118 -1.5585942649"
     fill="#0057ab"
     stroke="#0057ab"
     stroke-linecap="round"
     stroke-linejoin="round"
     stroke-width="0.47588591364"
     id="path94" />
  <path
     d="m 61.14447975968 92.75794296301 l -0.00390640119 -1.5585942649"
     fill="#0057ab"
     stroke="#0057ab"
     stroke-linecap="round"
     stroke-linejoin="round"
     stroke-width="0.47588591364"
     id="path95" />
  <path
     d="m 36.8125 76.851562 v 8.722657 h 1.824219 c 0.003906 -3.601563 2.921875 -6.519531 6.523437 -6.519531 c 3.597656 0 6.519532 2.917968 6.519532 6.519531 h 2.183593 v -8.722657 z m 0 0"
     fill="#043b70"
     id="path96" />
  <path
     d="m 36.33197321142 70.76184338532 v -1.56250066608"
     fill="none"
     stroke="#0057ab"
     stroke-linecap="round"
     stroke-linejoin="round"
     stroke-width="0.47588591364"
     id="path97" />
  <path
     d="m 29.17572135691 78.41809507525 l -0.00390640118 -1.56250003653"
     fill="none"
     stroke="#0057ab"
     stroke-linecap="round"
     stroke-linejoin="round"
     stroke-width="0.47588591364"
     id="path98" />
  <path
     d="m 31.00775300229 95.85560011644 l -0.00390640118 -1.5585942649"
     fill="#0057ab"
     stroke="#0057ab"
     stroke-linecap="round"
     stroke-linejoin="round"
     stroke-width="0.47588591364"
     id="path99" />
  <path
     d="m 39.62103646823 101.89466404192 l -0.00390640119 -1.5585942649"
     fill="#0057ab"
     stroke="#0057ab"
     stroke-linecap="round"
     stroke-linejoin="round"
     stroke-width="0.47588591364"
     id="path100" />
  <path
     d="m 62.83979240005 84.75403415876 v -1.55859363534"
     fill="none"
     stroke="#0057ab"
     stroke-linecap="round"
     stroke-linejoin="round"
     stroke-width="0.47588591364"
     id="path101" />
  <path
     d="m 59.31635388593 75.39075062492 v -1.5585942649"
     fill="none"
     stroke="#0057ab"
     stroke-linecap="round"
     stroke-linejoin="round"
     stroke-width="0.47588591364"
     id="path102" />
  <path
     d="m 50.70697682117 69.32434315026 v -1.5585942649"
     fill="none"
     stroke="#0057ab"
     stroke-linecap="round"
     stroke-linejoin="round"
     stroke-width="0.47588591364"
     id="path103" />
  <path
     d="m 47.496094 66.371094 c -2.421875 0.085937 0.4375 3.191406 -3.820313 3.640625 c -4.863281 0.507812 -1.359375 -4.304688 -5.824219 -2.316407 c -4.46875 1.988282 1.453126 2.605469 -2.179687 5.878907 c -3.632813 3.273437 -3.628906 -2.683594 -6.074219 1.550781 c -2.445312 4.234375 2.710938 1.253906 1.695313 6.035156 c -1.019531 4.785156 -4.515625 -0.035156 -4.003907 4.828125 c 0.511719 4.863281 2.929688 -0.582031 4.917969 3.886719 s -3.675781 2.621094 -0.402343 6.257812 c 3.273437 3.632813 2.03125 -2.191406 6.265624 0.253907 c 4.234376 2.445312 -1.429687 4.28125 3.351563 5.296875 c 4.785156 1.019531 0.355469 -2.964844 5.21875 -3.476563 c 4.863281 -0.507812 1.359375 4.304688 5.828125 2.316407 c 4.464844 -1.988282 -1.457031 -2.605469 2.175781 -5.878907 c 3.636719 -3.273437 3.628907 2.683594 6.074219 -1.550781 s -2.710938 -1.253906 -1.691406 -6.035156 c 1.015625 -4.785156 4.511718 0.035156 4 -4.828125 c -0.511719 -4.863281 -2.929688 0.582031 -4.917969 -3.886719 s 3.675781 -2.625 0.402344 -6.257812 c -3.273438 -3.632813 -2.027344 2.191406 -6.265625 -0.253907 c -4.234375 -2.445312 1.433594 -4.28125 -3.351563 -5.296875 c -0.597656 -0.128906 -1.050781 -0.175781 -1.398437 -0.164062 z m -2.335938 11.21875 c 3.597656 0 6.519532 2.917968 6.519532 6.519531 s -2.917969 6.519531 -6.519532 6.519531 c -3.601562 0 -6.523437 -2.917968 -6.523437 -6.519531 c 0.003906 -3.601563 2.921875 -6.519531 6.523437 -6.519531 z m 0 0"
     fill="#3e96ff"
     id="path104" />
</svg>
