<?xml version="1.0" encoding="UTF-8" standalone="no"?>
<svg
   height="128px"
   viewBox="0 0 128 128"
   width="128px"
   version="1.1"
   id="svg135"
   sodipodi:docname="io.github.nokse22.inspector.Devel.svg"
   inkscape:version="1.3 (0e150ed6c4, 2023-07-21)"
   xmlns:inkscape="http://www.inkscape.org/namespaces/inkscape"
   xmlns:sodipodi="http://sodipodi.sourceforge.net/DTD/sodipodi-0.dtd"
   xmlns:xlink="http://www.w3.org/1999/xlink"
   xmlns="http://www.w3.org/2000/svg"
   xmlns:svg="http://www.w3.org/2000/svg">
  <sodipodi:namedview
     id="namedview135"
     pagecolor="#ffffff"
     bordercolor="#000000"
     borderopacity="0.25"
     inkscape:showpageshadow="2"
     inkscape:pageopacity="0.0"
     inkscape:pagecheckerboard="0"
     inkscape:deskcolor="#d1d1d1"
     showgrid="false"
     inkscape:zoom="6.0078125"
     inkscape:cx="66.663199"
     inkscape:cy="81.477243"
     inkscape:window-width="1920"
     inkscape:window-height="1011"
     inkscape:window-x="0"
     inkscape:window-y="0"
     inkscape:window-maximized="1"
     inkscape:current-layer="svg135" />
  <defs
     id="defs77">
    <filter
       id="a"
       height="1"
       width="1"
       x="0"
       y="0">
      <feColorMatrix
         in="SourceGraphic"
         type="matrix"
         values="0 0 0 0 1 0 0 0 0 1 0 0 0 0 1 0 0 0 1 0"
         id="feColorMatrix1" />
    </filter>
    <mask
       id="b">
      <g
         filter="url(#a)"
         id="g1">
        <rect
           fill-opacity="0.3"
           height="128"
           width="128"
           id="rect1" />
      </g>
    </mask>
    <mask
       id="c">
      <g
         filter="url(#a)"
         id="g2">
        <rect
           fill-opacity="0.237923"
           height="128"
           width="128"
           id="rect2" />
      </g>
    </mask>
    <mask
       id="d">
      <g
         filter="url(#a)"
         id="g3">
        <rect
           fill-opacity="0.237923"
           height="128"
           width="128"
           id="rect3" />
      </g>
    </mask>
    <mask
       id="e">
      <g
         filter="url(#a)"
         id="g4">
        <rect
           fill-opacity="0.3"
           height="128"
           width="128"
           id="rect4" />
      </g>
    </mask>
    <clipPath
       id="f">
      <rect
         height="152"
         width="192"
         id="rect5" />
    </clipPath>
    <g
       id="g"
       clip-path="url(#f)">
      <path
         d="m 27.999969 192.00116 h 72"
         fill="none"
         stroke="#d5d3cf"
         stroke-width="2"
         transform="matrix(1 0 0 1 8.000031 -157.505066)"
         id="path5" />
      <path
         d="m 27.999969 202.00116 h 72"
         fill="none"
         stroke="#d5d3cf"
         stroke-width="2"
         transform="matrix(1 0 0 1 8.000031 -157.505066)"
         id="path6" />
      <path
         d="m 27.999969 212.00116 h 72"
         fill="none"
         stroke="#d5d3cf"
         stroke-width="2"
         transform="matrix(1 0 0 1 8.000031 -157.505066)"
         id="path7" />
      <path
         d="m 27.999969 222.00116 h 72"
         fill="none"
         stroke="#d5d3cf"
         stroke-width="2"
         transform="matrix(1 0 0 1 8.000031 -157.505066)"
         id="path8" />
      <path
         d="m 27.999969 232.00116 h 72"
         fill="none"
         stroke="#d5d3cf"
         stroke-width="2"
         transform="matrix(1 0 0 1 8.000031 -157.505066)"
         id="path9" />
      <path
         d="m 27.999969 242.00116 h 72"
         fill="none"
         stroke="#d5d3cf"
         stroke-width="2"
         transform="matrix(1 0 0 1 8.000031 -157.505066)"
         id="path10" />
      <path
         d="m 27.999969 252.00116 h 72"
         fill="none"
         stroke="#d5d3cf"
         stroke-width="2"
         transform="matrix(1 0 0 1 8.000031 -157.505066)"
         id="path11" />
      <path
         d="m 27.999969 262.00116 h 72"
         fill="none"
         stroke="#d5d3cf"
         stroke-width="2"
         transform="matrix(1 0 0 1 8.000031 -157.505066)"
         id="path12" />
      <path
         d="m 27.999969 272.00116 h 72"
         fill="none"
         stroke="#d5d3cf"
         stroke-width="2.08893"
         transform="matrix(1 0 0 1 8.000031 -157.505066)"
         id="path13" />
    </g>
    <mask
       id="h">
      <g
         filter="url(#a)"
         id="g13">
        <rect
           fill-opacity="0.237923"
           height="128"
           width="128"
           id="rect13" />
      </g>
    </mask>
    <clipPath
       id="i">
      <rect
         height="152"
         width="192"
         id="rect14" />
    </clipPath>
    <g
       id="j"
       clip-path="url(#i)">
      <path
         d="m 89.207031 34.316406 c -3.847656 0.140625 0.695313 5.070313 -6.066406 5.78125 c -7.722656 0.8125 -2.160156 -6.835937 -9.253906 -3.675781 c -7.097657 3.15625 2.3125 4.136719 -3.460938 9.335937 c -5.773437 5.199219 -5.761719 -4.261718 -9.648437 2.464844 c -3.882813 6.726563 4.304687 1.988282 2.691406 9.589844 c -1.617188 7.597656 -7.171875 -0.0625 -6.359375 7.664062 c 0.8125 7.726563 4.652344 -0.921874 7.8125 6.175782 s -5.835937 4.164062 -0.636719 9.9375 c 5.195313 5.773437 3.222656 -3.480469 9.949219 0.40625 c 6.726563 3.882812 -2.269531 6.800781 5.328125 8.414062 c 7.597656 1.613282 0.5625 -4.710937 8.285156 -5.519531 c 7.726563 -0.8125 2.160156 6.835937 9.257813 3.675781 c 7.09375 -3.160156 -2.316407 -4.140625 3.457031 -9.335937 c 5.773438 -5.199219 5.765625 4.261719 9.648438 -2.464844 c 3.886718 -6.730469 -4.304688 -1.992187 -2.6875 -9.589844 c 1.613281 -7.597656 7.167968 0.058594 6.355468 -7.664062 c -0.8125 -7.726563 -4.652344 0.917969 -7.8125 -6.175781 c -3.160156 -7.097657 5.835938 -4.167969 0.640625 -9.941407 c -5.199219 -5.773437 -3.226562 3.480469 -9.953125 -0.402343 c -6.726562 -3.886719 2.273438 -6.800782 -5.324218 -8.414063 c -0.949219 -0.203125 -1.671876 -0.28125 -2.222657 -0.261719 z m -3.710937 17.820313 c 5.71875 0 10.355468 4.636719 10.355468 10.355469 s -4.636718 10.359374 -10.355468 10.359374 c -5.722656 0 -10.359375 -4.640624 -10.359375 -10.359374 c 0.003906 -5.71875 4.640625 -10.355469 10.359375 -10.355469 z m 0 0"
         id="path14" />
    </g>
    <mask
       id="k">
      <g
         filter="url(#a)"
         id="g15">
        <rect
           fill-opacity="0.237923"
           height="128"
           width="128"
           id="rect15" />
      </g>
    </mask>
    <clipPath
       id="l">
      <rect
         height="152"
         width="192"
         id="rect16" />
    </clipPath>
    <g
       id="m"
       clip-path="url(#l)">
      <path
         d="m 55.496094 84.578125 c -2.421875 0.089844 0.4375 3.191406 -3.820313 3.640625 c -4.863281 0.511719 -1.359375 -4.304688 -5.824219 -2.316406 c -4.46875 1.988281 1.453126 2.605468 -2.179687 5.878906 s -3.628906 -2.683594 -6.074219 1.550781 c -2.445312 4.238281 2.710938 1.253907 1.695313 6.039063 c -1.019531 4.78125 -4.515625 -0.039063 -4.003907 4.824218 c 0.511719 4.863282 2.929688 -0.578124 4.917969 3.890626 c 1.988281 4.464843 -3.675781 2.621093 -0.402343 6.253906 c 3.273437 3.632812 2.03125 -2.191406 6.265624 0.253906 c 4.234376 2.445312 -1.429687 4.28125 3.351563 5.300781 c 4.785156 1.015625 0.355469 -2.964843 5.21875 -3.476562 s 1.359375 4.304687 5.828125 2.316406 c 4.464844 -1.992187 -1.457031 -2.609375 2.175781 -5.878906 c 3.636719 -3.273438 3.628907 2.683593 6.074219 -1.554688 c 2.445312 -4.234375 -2.710938 -1.25 -1.691406 -6.035156 c 1.015625 -4.785156 4.511718 0.039063 4 -4.824219 c -0.511719 -4.867187 -2.929688 0.578125 -4.917969 -3.890625 c -1.988281 -4.464843 3.675781 -2.621093 0.402344 -6.257812 c -3.273438 -3.632813 -2.027344 2.191406 -6.265625 -0.253907 c -4.234375 -2.445312 1.433594 -4.28125 -3.351563 -5.296874 c -0.597656 -0.125 -1.050781 -0.175782 -1.398437 -0.164063 z m -2.335938 11.21875 c 3.597656 0 6.519532 2.917969 6.519532 6.519531 c 0 3.601563 -2.917969 6.523438 -6.519532 6.519532 c -3.601562 0.003906 -6.523437 -2.917969 -6.523437 -6.519532 c 0.003906 -3.601562 2.921875 -6.519531 6.523437 -6.519531 z m 0 0"
         id="path16" />
    </g>
    <clipPath
       id="n">
      <rect
         height="128"
         width="128"
         id="rect17" />
    </clipPath>
    <clipPath
       id="o">
      <rect
         height="128"
         width="128"
         id="rect18" />
    </clipPath>
    <mask
       id="p">
      <g
         clip-path="url(#o)"
         filter="url(#a)"
         id="g74">
        <g
           clip-path="url(#n)"
           id="g73">
          <path
             d="m 108 115.496094 h -88 c -4.417969 0 -8 -3.582032 -8 -8 v -80 c 0 -4.417969 3.582031 -8 8 -8 h 88 c 4.417969 0 8 3.582031 8 8 v 80 c 0 4.417968 -3.582031 8 -8 8 z m 0 0"
             fill="#27b41a"
             id="path18" />
          <path
             d="m 108 113.496094 h -88 c -4.417969 0 -8 -3.582032 -8 -8 v -80 c 0 -4.417969 3.582031 -8 8 -8 h 88 c 4.417969 0 8 3.582031 8 8 v 80 c 0 4.417968 -3.582031 8 -8 8 z m 0 0"
             fill="#d5d3cf"
             id="path19" />
          <path
             d="m 108 107.496094 h -88 c -4.417969 0 -8 -3.582032 -8 -8 v -80 c 0 -4.417969 3.582031 -8 8 -8 h 88 c 4.417969 0 8 3.582031 8 8 v 80 c 0 4.417968 -3.582031 8 -8 8 z m 0 0"
             fill="#f6f5f4"
             id="path20" />
          <path
             d="m 110 79.496094 c 0 1.101562 -0.894531 2 -2 2 s -2 -0.898438 -2 -2 c 0 -1.105469 0.894531 -2 2 -2 s 2 0.894531 2 2 z m 0 0"
             fill="#d5d3cf"
             id="path21" />
          <path
             d="m 110 69.496094 c 0 1.101562 -0.894531 2 -2 2 s -2 -0.898438 -2 -2 c 0 -1.105469 0.894531 -2 2 -2 s 2 0.894531 2 2 z m 0 0"
             fill="#d5d3cf"
             id="path22" />
          <path
             d="m 110 59.496094 c 0 1.101562 -0.894531 2 -2 2 s -2 -0.898438 -2 -2 c 0 -1.105469 0.894531 -2 2 -2 s 2 0.894531 2 2 z m 0 0"
             fill="#d5d3cf"
             id="path23" />
          <path
             d="m 110 49.496094 c 0 1.101562 -0.894531 2 -2 2 s -2 -0.898438 -2 -2 c 0 -1.105469 0.894531 -2 2 -2 s 2 0.894531 2 2 z m 0 0"
             fill="#d5d3cf"
             id="path24" />
          <path
             d="m 110 39.496094 c 0 1.101562 -0.894531 2 -2 2 s -2 -0.898438 -2 -2 c 0 -1.105469 0.894531 -2 2 -2 s 2 0.894531 2 2 z m 0 0"
             fill="#d5d3cf"
             id="path25" />
          <path
             d="m 110 29.496094 c 0 1.101562 -0.894531 2 -2 2 s -2 -0.898438 -2 -2 c 0 -1.105469 0.894531 -2 2 -2 s 2 0.894531 2 2 z m 0 0"
             fill="#d5d3cf"
             id="path26" />
          <path
             d="m 110 19.496094 c 0 1.101562 -0.894531 2 -2 2 s -2 -0.898438 -2 -2 c 0 -1.105469 0.894531 -2 2 -2 s 2 0.894531 2 2 z m 0 0"
             fill="#d5d3cf"
             id="path27" />
          <path
             d="m 22 99.496094 c 0 1.101562 -0.894531 2 -2 2 s -2 -0.898438 -2 -2 c 0 -1.105469 0.894531 -2 2 -2 s 2 0.894531 2 2 z m 0 0"
             fill="#d5d3cf"
             id="path28" />
          <path
             d="m 22 89.496094 c 0 1.101562 -0.894531 2 -2 2 s -2 -0.898438 -2 -2 c 0 -1.105469 0.894531 -2 2 -2 s 2 0.894531 2 2 z m 0 0"
             fill="#d5d3cf"
             id="path29" />
          <path
             d="m 22 79.496094 c 0 1.101562 -0.894531 2 -2 2 s -2 -0.898438 -2 -2 c 0 -1.105469 0.894531 -2 2 -2 s 2 0.894531 2 2 z m 0 0"
             fill="#d5d3cf"
             id="path30" />
          <path
             d="m 22 69.496094 c 0 1.101562 -0.894531 2 -2 2 s -2 -0.898438 -2 -2 c 0 -1.105469 0.894531 -2 2 -2 s 2 0.894531 2 2 z m 0 0"
             fill="#d5d3cf"
             id="path31" />
          <path
             d="m 22 59.496094 c 0 1.101562 -0.894531 2 -2 2 s -2 -0.898438 -2 -2 c 0 -1.105469 0.894531 -2 2 -2 s 2 0.894531 2 2 z m 0 0"
             fill="#d5d3cf"
             id="path32" />
          <path
             d="m 22 49.496094 c 0 1.101562 -0.894531 2 -2 2 s -2 -0.898438 -2 -2 c 0 -1.105469 0.894531 -2 2 -2 s 2 0.894531 2 2 z m 0 0"
             fill="#d5d3cf"
             id="path33" />
          <path
             d="m 22 39.496094 c 0 1.101562 -0.894531 2 -2 2 s -2 -0.898438 -2 -2 c 0 -1.105469 0.894531 -2 2 -2 s 2 0.894531 2 2 z m 0 0"
             fill="#d5d3cf"
             id="path34" />
          <path
             d="m 22 29.496094 c 0 1.101562 -0.894531 2 -2 2 s -2 -0.898438 -2 -2 c 0 -1.105469 0.894531 -2 2 -2 s 2 0.894531 2 2 z m 0 0"
             fill="#d5d3cf"
             id="path35" />
          <path
             d="m 22 19.496094 c 0 1.101562 -0.894531 2 -2 2 s -2 -0.898438 -2 -2 c 0 -1.105469 0.894531 -2 2 -2 s 2 0.894531 2 2 z m 0 0"
             fill="#d5d3cf"
             id="path36" />
          <use
             mask="url(#e)"
             transform="matrix(1 0 0 1 -8 -16)"
             xlink:href="#g"
             id="use36" />
          <use
             mask="url(#h)"
             transform="matrix(1 0 0 1 -8 -16)"
             xlink:href="#j"
             id="use37" />
          <use
             mask="url(#k)"
             transform="matrix(1 0 0 1 -8 -16)"
             xlink:href="#m"
             id="use38" />
          <path
             d="m 81.207031 11.136719 c -3.847656 0.140625 0.695313 5.074219 -6.066406 5.78125 c -7.722656 0.8125 -2.160156 -6.835938 -9.253906 -3.675781 c -7.097657 3.160156 2.3125 4.140624 -3.460938 9.335937 c -5.773437 5.199219 -5.761719 -4.261719 -9.648437 2.464844 c -3.882813 6.730469 4.304687 1.992187 2.691406 9.589843 c -1.617188 7.597657 -7.171875 -0.058593 -6.359375 7.664063 c 0.8125 7.726563 4.652344 -0.917969 7.8125 6.175781 c 3.160156 7.097656 -5.835937 4.167969 -0.636719 9.9375 c 5.195313 5.773438 3.222656 -3.476562 9.949219 0.40625 c 6.726563 3.882813 -2.269531 6.800782 5.328125 8.414063 c 7.597656 1.617187 0.5625 -4.707031 8.285156 -5.519531 c 7.726563 -0.8125 2.160156 6.835937 9.257813 3.675781 c 7.09375 -3.15625 -2.316407 -4.136719 3.457031 -9.335938 s 5.765625 4.261719 9.648438 -2.464843 c 3.886718 -6.726563 -4.304688 -1.988282 -2.6875 -9.589844 c 1.613281 -7.597656 7.167968 0.0625 6.355468 -7.664063 c -0.8125 -7.726562 -4.652344 0.921875 -7.8125 -6.175781 s 5.835938 -4.167969 0.640625 -9.941406 c -5.199219 -5.769532 -3.226562 3.480468 -9.953125 -0.402344 c -6.726562 -3.882812 2.273438 -6.800781 -5.324218 -8.414062 c -0.949219 -0.203126 -1.671876 -0.28125 -2.222657 -0.261719 z m -3.710937 17.820312 c 5.71875 0 10.355468 4.636719 10.355468 10.355469 c 0 5.722656 -4.636718 10.359375 -10.355468 10.359375 c -5.722656 0 -10.359375 -4.636719 -10.359375 -10.359375 c 0.003906 -5.71875 4.640625 -10.355469 10.359375 -10.355469 z m 0 0"
             fill="#26a269"
             id="path38" />
          <path
             d="m -324.314673 802.716244 l -0.003907 -3.394532"
             fill="#26a269"
             stroke="#26a269"
             stroke-linecap="round"
             stroke-linejoin="round"
             stroke-width="0.755906"
             transform="matrix(1 0 0 1 415.822486 -739.684994)"
             id="path39" />
          <path
             d="m -312.935767 790.411556 l -0.003906 -3.492187"
             fill="#26a269"
             stroke="#26a269"
             stroke-linecap="round"
             stroke-linejoin="round"
             stroke-width="0.755906"
             transform="matrix(1 0 0 1 415.822486 -739.684994)"
             id="path40" />
          <path
             d="m 64.238281 25.457031 v 13.855469 h 2.898438 c 0.003906 -5.71875 4.640625 -10.355469 10.359375 -10.355469 s 10.355468 4.636719 10.355468 10.355469 h 3.46875 v -13.855469 z m 0 0"
             fill="#187c0e"
             id="path41" />
          <path
             d="m -352.345923 755.47015 l -0.003907 -3.460938"
             fill="#26a269"
             stroke="#26a269"
             stroke-linecap="round"
             stroke-linejoin="round"
             stroke-width="0.755906"
             transform="matrix(1 0 0 1 415.822486 -739.684994)"
             id="path42" />
          <path
             d="m -363.717017 767.634212 l -0.003906 -3.34375"
             fill="#26a269"
             stroke="#26a269"
             stroke-linecap="round"
             stroke-linejoin="round"
             stroke-width="0.755906"
             transform="matrix(1 0 0 1 415.822486 -739.684994)"
             id="path43" />
          <path
             d="m -360.806861 795.337337 l -0.003906 -3.402343"
             fill="#26a269"
             stroke="#26a269"
             stroke-linecap="round"
             stroke-linejoin="round"
             stroke-width="0.755906"
             transform="matrix(1 0 0 1 415.822486 -739.684994)"
             id="path44" />
          <path
             d="m -347.150611 804.809994 l -0.003906 -3.363282"
             fill="#26a269"
             stroke="#26a269"
             stroke-linecap="round"
             stroke-linejoin="round"
             stroke-width="0.755906"
             transform="matrix(1 0 0 1 415.822486 -739.684994)"
             id="path45" />
          <path
             d="m -310.240455 777.700619 l -0.003906 -3.4375"
             fill="#26a269"
             stroke="#26a269"
             stroke-linecap="round"
             stroke-linejoin="round"
             stroke-width="0.755906"
             transform="matrix(1 0 0 1 415.822486 -739.684994)"
             id="path46" />
          <path
             d="m -315.834205 762.829525 l -0.007812 -3.378906"
             fill="#26a269"
             stroke="#26a269"
             stroke-linecap="round"
             stroke-linejoin="round"
             stroke-width="0.755906"
             transform="matrix(1 0 0 1 415.822486 -739.684994)"
             id="path47" />
          <path
             d="m -329.509986 753.1889 l -0.003906 -3.457031"
             fill="#26a269"
             stroke="#26a269"
             stroke-linecap="round"
             stroke-linejoin="round"
             stroke-width="0.755906"
             transform="matrix(1 0 0 1 415.822486 -739.684994)"
             id="path48" />
          <path
             d="m -351.959205 755.47015 l -0.003906 -3.460938"
             fill="#26a269"
             stroke="#26a269"
             stroke-linecap="round"
             stroke-linejoin="round"
             stroke-width="0.755906"
             transform="matrix(1 0 0 1 415.822486 -739.684994)"
             id="path49" />
          <path
             d="m -316.127173 762.829525 l -0.003907 -3.378906"
             fill="#26a269"
             stroke="#26a269"
             stroke-linecap="round"
             stroke-linejoin="round"
             stroke-width="0.755906"
             transform="matrix(1 0 0 1 415.822486 -739.684994)"
             id="path50" />
          <path
             d="m -324.69358 802.716244 l -0.003906 -3.394532"
             fill="#26a269"
             stroke="#26a269"
             stroke-linecap="round"
             stroke-linejoin="round"
             stroke-width="0.755906"
             transform="matrix(1 0 0 1 415.822486 -739.684994)"
             id="path51" />
          <path
             d="m -360.427955 795.337337 l -0.003906 -3.402343"
             fill="#26a269"
             stroke="#26a269"
             stroke-linecap="round"
             stroke-linejoin="round"
             stroke-width="0.755906"
             transform="matrix(1 0 0 1 415.822486 -739.684994)"
             id="path52" />
          <path
             d="m -366.41233 780.329525 l -0.003906 -3.402344"
             fill="#26a269"
             stroke="#26a269"
             stroke-linecap="round"
             stroke-linejoin="round"
             stroke-width="0.755906"
             transform="matrix(1 0 0 1 415.822486 -739.684994)"
             id="path53" />
          <path
             d="m 81.207031 7.695312 c -3.847656 0.136719 0.695313 5.070313 -6.066406 5.78125 c -7.722656 0.808594 -2.160156 -6.839843 -9.253906 -3.679687 c -7.097657 3.160156 2.3125 4.140625 -3.460938 9.339844 c -5.773437 5.195312 -5.761719 -4.265625 -9.648437 2.464843 c -3.882813 6.726563 4.304687 1.988282 2.691406 9.585938 c -1.617188 7.597656 -7.171875 -0.058594 -6.359375 7.667969 c 0.8125 7.722656 4.652344 -0.921875 7.8125 6.175781 c 3.160156 7.09375 -5.835937 4.164062 -0.636719 9.9375 c 5.195313 5.769531 3.222656 -3.480469 9.949219 0.402344 c 6.726563 3.882812 -2.269531 6.800781 5.328125 8.417968 c 7.597656 1.613282 0.5625 -4.710937 8.285156 -5.523437 c 7.726563 -0.8125 2.160156 6.835937 9.257813 3.679687 c 7.09375 -3.160156 -2.316407 -4.140624 3.457031 -9.339843 s 5.765625 4.261719 9.648438 -2.464844 c 3.886718 -6.726563 -4.304688 -1.988281 -2.6875 -9.585937 c 1.613281 -7.601563 7.167968 0.058593 6.355468 -7.667969 c -0.8125 -7.726563 -4.652344 0.921875 -7.8125 -6.175781 c -3.160156 -7.097657 5.835938 -4.167969 0.640625 -9.9375 c -5.199219 -5.773438 -3.226562 3.476562 -9.953125 -0.40625 c -6.726562 -3.882813 2.273438 -6.796876 -5.324218 -8.414063 c -0.949219 -0.203125 -1.671876 -0.277344 -2.222657 -0.257813 z m -3.710937 17.820313 c 5.71875 0 10.355468 4.632813 10.355468 10.355469 c 0 5.71875 -4.636718 10.355468 -10.355468 10.355468 c -5.722656 0 -10.359375 -4.636718 -10.359375 -10.355468 c 0.003906 -5.722656 4.640625 -10.355469 10.359375 -10.355469 z m 0 0"
             fill="#19cf08"
             id="path54" />
          <path
             d="m 47.496094 60.15625 c -2.421875 0.085938 0.4375 3.191406 -3.820313 3.636719 c -4.863281 0.511719 -1.359375 -4.304688 -5.824219 -2.3125 c -4.46875 1.988281 1.453126 2.605469 -2.179687 5.875 c -3.632813 3.273437 -3.628906 -2.679688 -6.074219 1.554687 c -2.445312 4.234375 2.710938 1.25 1.695313 6.035156 c -1.019531 4.785157 -4.515625 -0.039062 -4.003907 4.824219 c 0.511719 4.867188 2.929688 -0.578125 4.917969 3.890625 s -3.675781 2.621094 -0.402343 6.253906 c 3.273437 3.636719 2.03125 -2.1875 6.265624 0.257813 c 4.234376 2.445313 -1.429687 4.28125 3.351563 5.296875 c 4.785156 1.015625 0.355469 -2.964844 5.21875 -3.476562 c 4.863281 -0.511719 1.359375 4.304687 5.828125 2.316406 c 4.464844 -1.988282 -1.457031 -2.605469 2.175781 -5.878906 c 3.636719 -3.273438 3.628907 2.683593 6.074219 -1.550782 c 2.445312 -4.238281 -2.710938 -1.253906 -1.691406 -6.039062 c 1.015625 -4.78125 4.511718 0.039062 4 -4.824219 c -0.511719 -4.863281 -2.929688 0.578125 -4.917969 -3.886719 c -1.988281 -4.46875 3.675781 -2.625 0.402344 -6.257812 c -3.273438 -3.636719 -2.027344 2.1875 -6.265625 -0.257813 c -4.234375 -2.445312 1.433594 -4.277343 -3.351563 -5.296875 c -0.597656 -0.125 -1.050781 -0.175781 -1.398437 -0.160156 z m -2.335938 11.21875 c 3.597656 0 6.519532 2.917969 6.519532 6.519531 c 0 3.597657 -2.917969 6.519531 -6.519532 6.519531 c -3.601562 0 -6.523437 -2.921874 -6.523437 -6.519531 c 0.003906 -3.601562 2.921875 -6.519531 6.523437 -6.519531 z m 0 0"
             fill="#0057ab"
             id="path55" />
          <path
             d="m -324.314521 802.71678 l -0.006205 -3.437438"
             fill="#0057ab"
             stroke="#0057ab"
             stroke-linecap="round"
             stroke-linejoin="round"
             stroke-width="0.755906"
             transform="matrix(0.629557 0 0 0.629557 258.154892 -412.531616)"
             id="path56" />
          <path
             d="m -312.934988 790.412738 l -0.006205 -3.468462"
             fill="#0057ab"
             stroke="#0057ab"
             stroke-linecap="round"
             stroke-linejoin="round"
             stroke-width="0.755906"
             transform="matrix(0.629557 0 0 0.629557 258.154892 -412.531616)"
             id="path57" />
          <path
             d="m 36.8125 69.167969 v 8.726562 h 1.824219 c 0.003906 -3.601562 2.921875 -6.519531 6.523437 -6.519531 c 3.597656 0 6.519532 2.917969 6.519532 6.519531 h 2.183593 v -8.726562 z m 0 0"
             fill="#043b70"
             id="path58" />
          <path
             d="m -352.347633 755.275173 v -3.400209"
             fill="none"
             stroke="#0057ab"
             stroke-linecap="round"
             stroke-linejoin="round"
             stroke-width="0.755906"
             transform="matrix(0.629557 0 0 0.629557 258.154892 -412.531616)"
             id="path59" />
          <path
             d="m -363.714756 767.635058 l -0.006205 -3.431233"
             fill="none"
             stroke="#0057ab"
             stroke-linecap="round"
             stroke-linejoin="round"
             stroke-width="0.755906"
             transform="matrix(0.629557 0 0 0.629557 258.154892 -412.531616)"
             id="path60" />
          <path
             d="m -360.804723 795.333113 l -0.006205 -3.443642"
             fill="#0057ab"
             stroke="#0057ab"
             stroke-linecap="round"
             stroke-linejoin="round"
             stroke-width="0.755906"
             transform="matrix(0.629557 0 0 0.629557 258.154892 -412.531616)"
             id="path61" />
          <path
             d="m -347.141838 804.80158 l -0.006205 -3.344367"
             fill="#0057ab"
             stroke="#0057ab"
             stroke-linecap="round"
             stroke-linejoin="round"
             stroke-width="0.755906"
             transform="matrix(0.629557 0 0 0.629557 258.154892 -412.531616)"
             id="path62" />
          <path
             d="m -310.242122 777.699181 v -3.437438"
             fill="none"
             stroke="#0057ab"
             stroke-linecap="round"
             stroke-linejoin="round"
             stroke-width="0.755906"
             transform="matrix(0.629557 0 0 0.629557 258.154892 -412.531616)"
             id="path63" />
          <path
             d="m -315.838817 762.826368 v -3.443643"
             fill="none"
             stroke="#0057ab"
             stroke-linecap="round"
             stroke-linejoin="round"
             stroke-width="0.755906"
             transform="matrix(0.629557 0 0 0.629557 258.154892 -412.531616)"
             id="path64" />
          <path
             d="m -329.514111 753.190373 v -3.462256"
             fill="none"
             stroke="#0057ab"
             stroke-linecap="round"
             stroke-linejoin="round"
             stroke-width="0.755906"
             transform="matrix(0.629557 0 0 0.629557 258.154892 -412.531616)"
             id="path65" />
          <path
             d="m -316.217307 762.77673 v -3.443643"
             fill="none"
             stroke="#0057ab"
             stroke-linecap="round"
             stroke-linejoin="round"
             stroke-width="0.755906"
             transform="matrix(0.629557 0 0 0.629557 258.154892 -412.531616)"
             id="path66" />
          <path
             d="m -324.693011 802.71678 l -0.006205 -3.437438"
             fill="#0057ab"
             stroke="#0057ab"
             stroke-linecap="round"
             stroke-linejoin="round"
             stroke-width="0.755906"
             transform="matrix(0.629557 0 0 0.629557 258.154892 -412.531616)"
             id="path67" />
          <path
             d="m -360.804723 795.333113 c 0.577043 -1.092038 0.421924 -2.252328 -0.006205 -3.443642"
             fill="#0057ab"
             stroke="#0057ab"
             stroke-linecap="round"
             stroke-linejoin="round"
             stroke-width="0.755906"
             transform="matrix(0.629557 0 0 0.629557 258.154892 -412.531616)"
             id="path68" />
          <path
             d="m -366.407623 780.404457 l -0.006205 -3.338161"
             fill="#0057ab"
             stroke="#0057ab"
             stroke-linecap="round"
             stroke-linejoin="round"
             stroke-width="0.755906"
             transform="matrix(0.629557 0 0 0.629557 258.154892 -412.531616)"
             id="path69" />
          <path
             d="m -351.962938 755.275173 l -0.006205 -3.400209"
             fill="none"
             stroke="#0057ab"
             stroke-linecap="round"
             stroke-linejoin="round"
             stroke-width="0.755906"
             transform="matrix(0.629557 0 0 0.629557 258.154892 -412.531616)"
             id="path70" />
          <path
             d="m 47.496094 57.957031 c -2.421875 0.085938 0.4375 3.191407 -3.820313 3.640625 c -4.863281 0.507813 -1.359375 -4.304687 -5.824219 -2.316406 c -4.46875 1.988281 1.453126 2.605469 -2.179687 5.878906 c -3.632813 3.269532 -3.628906 -2.683594 -6.074219 1.550782 c -2.445312 4.234374 2.710938 1.253906 1.695313 6.035156 c -1.019531 4.785156 -4.515625 -0.035156 -4.003907 4.828125 c 0.511719 4.863281 2.929688 -0.582031 4.917969 3.886719 s -3.675781 2.621093 -0.402343 6.257812 c 3.273437 3.632812 2.03125 -2.191406 6.265624 0.253906 c 4.234376 2.445313 -1.429687 4.28125 3.351563 5.296875 c 4.785156 1.019531 0.355469 -2.964843 5.21875 -3.476562 c 4.863281 -0.507813 1.359375 4.304687 5.828125 2.316406 c 4.464844 -1.988281 -1.457031 -2.605469 2.175781 -5.878906 c 3.636719 -3.273438 3.628907 2.683593 6.074219 -1.550781 c 2.445312 -4.234376 -2.710938 -1.253907 -1.691406 -6.035157 c 1.015625 -4.785156 4.511718 0.035157 4 -4.828125 c -0.511719 -4.863281 -2.929688 0.582032 -4.917969 -3.886718 s 3.675781 -2.625 0.402344 -6.257813 c -3.273438 -3.632813 -2.027344 2.191406 -6.265625 -0.253906 c -4.234375 -2.445313 1.433594 -4.28125 -3.351563 -5.296875 c -0.597656 -0.128906 -1.050781 -0.175782 -1.398437 -0.164063 z m -2.335938 11.21875 c 3.597656 0 6.519532 2.917969 6.519532 6.519531 c 0 3.601563 -2.917969 6.519532 -6.519532 6.519532 c -3.601562 0 -6.523437 -2.917969 -6.523437 -6.519532 c 0.003906 -3.601562 2.921875 -6.519531 6.523437 -6.519531 z m 0 0"
             fill="#3e96ff"
             id="path71" />
          <path
             d="m 110 99.496094 c 0 1.101562 -0.894531 2 -2 2 s -2 -0.898438 -2 -2 c 0 -1.105469 0.894531 -2 2 -2 s 2 0.894531 2 2 z m 0 0"
             fill="#d5d3cf"
             id="path72" />
          <path
             d="m 110 89.496094 c 0 1.101562 -0.894531 2 -2 2 s -2 -0.898438 -2 -2 c 0 -1.105469 0.894531 -2 2 -2 s 2 0.894531 2 2 z m 0 0"
             fill="#d5d3cf"
             id="path73" />
        </g>
      </g>
    </mask>
    <mask
       id="q">
      <g
         filter="url(#a)"
         id="g75">
        <rect
           fill-opacity="0.8"
           height="128"
           width="128"
           id="rect74" />
      </g>
    </mask>
    <linearGradient
       id="r"
       gradientTransform="matrix(0 0.37 -0.98462 0 295.38501 -30.360001)"
       gradientUnits="userSpaceOnUse"
       x1="300"
       x2="428"
       y1="235"
       y2="235">
      <stop
         offset="0"
         stop-color="#f9f06b"
         id="stop75" />
      <stop
         offset="1"
         stop-color="#f5c211"
         id="stop76" />
    </linearGradient>
    <clipPath
       id="s">
      <rect
         height="128"
         width="128"
         id="rect76" />
    </clipPath>
    <clipPath
       id="t">
      <rect
         height="128"
         width="128"
         id="rect77" />
    </clipPath>
  </defs>
  <path
     d="m 108 115.496094 h -88 c -4.417969 0 -8 -3.582032 -8 -8 v -80 c 0 -4.417969 3.582031 -8 8 -8 h 88 c 4.417969 0 8 3.582031 8 8 v 80 c 0 4.417968 -3.582031 8 -8 8 z m 0 0"
     fill="#27b41a"
     id="path77" />
  <path
     d="m 108 113.496094 h -88 c -4.417969 0 -8 -3.582032 -8 -8 v -80 c 0 -4.417969 3.582031 -8 8 -8 h 88 c 4.417969 0 8 3.582031 8 8 v 80 c 0 4.417968 -3.582031 8 -8 8 z m 0 0"
     fill="#d5d3cf"
     id="path78" />
  <path
     d="m 108 107.496094 h -88 c -4.417969 0 -8 -3.582032 -8 -8 v -80 c 0 -4.417969 3.582031 -8 8 -8 h 88 c 4.417969 0 8 3.582031 8 8 v 80 c 0 4.417968 -3.582031 8 -8 8 z m 0 0"
     fill="#f6f5f4"
     id="path79" />
  <path
     d="m 110 99.496094 c 0 1.101562 -0.894531 2 -2 2 s -2 -0.898438 -2 -2 c 0 -1.105469 0.894531 -2 2 -2 s 2 0.894531 2 2 z m 0 0"
     fill="#d5d3cf"
     id="path131" />
  <g
     fill="#d5d3cf"
     id="g95">
    <path
       d="m 110 79.496094 c 0 1.101562 -0.894531 2 -2 2 s -2 -0.898438 -2 -2 c 0 -1.105469 0.894531 -2 2 -2 s 2 0.894531 2 2 z m 0 0"
       id="path80" />
    <path
       d="m 110 69.496094 c 0 1.101562 -0.894531 2 -2 2 s -2 -0.898438 -2 -2 c 0 -1.105469 0.894531 -2 2 -2 s 2 0.894531 2 2 z m 0 0"
       id="path81" />
    <path
       d="m 110 59.496094 c 0 1.101562 -0.894531 2 -2 2 s -2 -0.898438 -2 -2 c 0 -1.105469 0.894531 -2 2 -2 s 2 0.894531 2 2 z m 0 0"
       id="path82" />
    <path
       d="m 110 49.496094 c 0 1.101562 -0.894531 2 -2 2 s -2 -0.898438 -2 -2 c 0 -1.105469 0.894531 -2 2 -2 s 2 0.894531 2 2 z m 0 0"
       id="path83" />
    <path
       d="m 110 39.496094 c 0 1.101562 -0.894531 2 -2 2 s -2 -0.898438 -2 -2 c 0 -1.105469 0.894531 -2 2 -2 s 2 0.894531 2 2 z m 0 0"
       id="path84" />
    <path
       d="m 110 29.496094 c 0 1.101562 -0.894531 2 -2 2 s -2 -0.898438 -2 -2 c 0 -1.105469 0.894531 -2 2 -2 s 2 0.894531 2 2 z m 0 0"
       id="path85" />
    <path
       d="m 110 19.496094 c 0 1.101562 -0.894531 2 -2 2 s -2 -0.898438 -2 -2 c 0 -1.105469 0.894531 -2 2 -2 s 2 0.894531 2 2 z m 0 0"
       id="path86" />
    <path
       d="m 22 99.496094 c 0 1.101562 -0.894531 2 -2 2 s -2 -0.898438 -2 -2 c 0 -1.105469 0.894531 -2 2 -2 s 2 0.894531 2 2 z m 0 0"
       id="path87" />
    <path
       d="m 22 89.496094 c 0 1.101562 -0.894531 2 -2 2 s -2 -0.898438 -2 -2 c 0 -1.105469 0.894531 -2 2 -2 s 2 0.894531 2 2 z m 0 0"
       id="path88" />
    <path
       d="m 22 79.496094 c 0 1.101562 -0.894531 2 -2 2 s -2 -0.898438 -2 -2 c 0 -1.105469 0.894531 -2 2 -2 s 2 0.894531 2 2 z m 0 0"
       id="path89" />
    <path
       d="m 22 69.496094 c 0 1.101562 -0.894531 2 -2 2 s -2 -0.898438 -2 -2 c 0 -1.105469 0.894531 -2 2 -2 s 2 0.894531 2 2 z m 0 0"
       id="path90" />
    <path
       d="m 22 59.496094 c 0 1.101562 -0.894531 2 -2 2 s -2 -0.898438 -2 -2 c 0 -1.105469 0.894531 -2 2 -2 s 2 0.894531 2 2 z m 0 0"
       id="path91" />
    <path
       d="m 22 49.496094 c 0 1.101562 -0.894531 2 -2 2 s -2 -0.898438 -2 -2 c 0 -1.105469 0.894531 -2 2 -2 s 2 0.894531 2 2 z m 0 0"
       id="path92" />
    <path
       d="m 22 39.496094 c 0 1.101562 -0.894531 2 -2 2 s -2 -0.898438 -2 -2 c 0 -1.105469 0.894531 -2 2 -2 s 2 0.894531 2 2 z m 0 0"
       id="path93" />
    <path
       d="m 22 29.496094 c 0 1.101562 -0.894531 2 -2 2 s -2 -0.898438 -2 -2 c 0 -1.105469 0.894531 -2 2 -2 s 2 0.894531 2 2 z m 0 0"
       id="path94" />
    <path
       d="m 22 19.496094 c 0 1.101562 -0.894531 2 -2 2 s -2 -0.898438 -2 -2 c 0 -1.105469 0.894531 -2 2 -2 s 2 0.894531 2 2 z m 0 0"
       id="path95" />
  </g>
  <use
     mask="url(#b)"
     transform="matrix(1 0 0 1 -8 -16)"
     xlink:href="#g"
     id="use95" />
  <path
     d="m 110 89.496094 c 0 1.101562 -0.894531 2 -2 2 s -2 -0.898438 -2 -2 c 0 -1.105469 0.894531 -2 2 -2 s 2 0.894531 2 2 z m 0 0"
     fill="#d5d3cf"
     id="path132" />
  <g
     clip-path="url(#t)"
     mask="url(#p)"
     id="g135">
    <g
       clip-path="url(#s)"
       mask="url(#q)"
       id="g134"
       style="display:inline">
      <path
         d="M 128,80.640625 V 128 H 0 V 80.640625 Z m 0,0"
         fill="url(#r)"
         id="path133" />
      <path
         d="M 13.308594,80.640625 60.664062,128 H 81.878906 L 34.519531,80.640625 Z m 42.421875,0 L 103.09375,128 h 21.21484 L 76.945312,80.640625 Z m 42.429687,0 L 128,110.48047 V 89.269531 l -8.62891,-8.628906 z M 0,88.546875 V 109.76172 L 18.238281,128 h 21.214844 z m 0,0"
         id="path134" />
    </g>
  </g>
  <use
     mask="url(#c)"
     transform="matrix(1 0 0 1 -8 -16)"
     xlink:href="#j"
     id="use96" />
  <use
     mask="url(#d)"
     transform="matrix(1 0 0 1 -8 -16)"
     xlink:href="#m"
     id="use97" />
  <path
     d="m 81.207031 11.136719 c -3.847656 0.140625 0.695313 5.074219 -6.066406 5.78125 c -7.722656 0.8125 -2.160156 -6.835938 -9.253906 -3.675781 c -7.097657 3.160156 2.3125 4.140624 -3.460938 9.335937 c -5.773437 5.199219 -5.761719 -4.261719 -9.648437 2.464844 c -3.882813 6.730469 4.304687 1.992187 2.691406 9.589843 c -1.617188 7.597657 -7.171875 -0.058593 -6.359375 7.664063 c 0.8125 7.726563 4.652344 -0.917969 7.8125 6.175781 c 3.160156 7.097656 -5.835937 4.167969 -0.636719 9.9375 c 5.195313 5.773438 3.222656 -3.476562 9.949219 0.40625 c 6.726563 3.882813 -2.269531 6.800782 5.328125 8.414063 c 7.597656 1.617187 0.5625 -4.707031 8.285156 -5.519531 c 7.726563 -0.8125 2.160156 6.835937 9.257813 3.675781 c 7.09375 -3.15625 -2.316407 -4.136719 3.457031 -9.335938 s 5.765625 4.261719 9.648438 -2.464843 c 3.886718 -6.726563 -4.304688 -1.988282 -2.6875 -9.589844 c 1.613281 -7.597656 7.167968 0.0625 6.355468 -7.664063 c -0.8125 -7.726562 -4.652344 0.921875 -7.8125 -6.175781 s 5.835938 -4.167969 0.640625 -9.941406 c -5.199219 -5.769532 -3.226562 3.480468 -9.953125 -0.402344 c -6.726562 -3.882812 2.273438 -6.800781 -5.324218 -8.414062 c -0.949219 -0.203126 -1.671876 -0.28125 -2.222657 -0.261719 z m -3.710937 17.820312 c 5.71875 0 10.355468 4.636719 10.355468 10.355469 c 0 5.722656 -4.636718 10.359375 -10.355468 10.359375 c -5.722656 0 -10.359375 -4.636719 -10.359375 -10.359375 c 0.003906 -5.71875 4.640625 -10.355469 10.359375 -10.355469 z m 0 0"
     fill="#26a269"
     id="path97" />
  <path
     d="m 91.507813 63.03125 l -0.003907 -3.394532"
     fill="#26a269"
     stroke="#26a269"
     stroke-linecap="round"
     stroke-linejoin="round"
     stroke-width="0.755906"
     id="path98" />
  <path
     d="m 102.886719 50.726562 l -0.003906 -3.492187"
     fill="#26a269"
     stroke="#26a269"
     stroke-linecap="round"
     stroke-linejoin="round"
     stroke-width="0.755906"
     id="path99" />
  <path
     d="m 64.238281 25.457031 v 13.855469 h 2.898438 c 0.003906 -5.71875 4.640625 -10.355469 10.359375 -10.355469 s 10.355468 4.636719 10.355468 10.355469 h 3.46875 v -13.855469 z m 0 0"
     fill="#187c0e"
     id="path100" />
  <path
     d="m 63.476563 15.785156 l -0.003907 -3.460938"
     fill="#26a269"
     stroke="#26a269"
     stroke-linecap="round"
     stroke-linejoin="round"
     stroke-width="0.755906"
     id="path101" />
  <path
     d="m 52.105469 27.949218 l -0.003906 -3.34375"
     fill="#26a269"
     stroke="#26a269"
     stroke-linecap="round"
     stroke-linejoin="round"
     stroke-width="0.755906"
     id="path102" />
  <path
     d="m 55.015625 55.652343 l -0.003906 -3.402343"
     fill="#26a269"
     stroke="#26a269"
     stroke-linecap="round"
     stroke-linejoin="round"
     stroke-width="0.755906"
     id="path103" />
  <path
     d="m 68.671875 65.125 l -0.003906 -3.363282"
     fill="#26a269"
     stroke="#26a269"
     stroke-linecap="round"
     stroke-linejoin="round"
     stroke-width="0.755906"
     id="path104" />
  <path
     d="m 105.582031 38.015625 l -0.003906 -3.4375"
     fill="#26a269"
     stroke="#26a269"
     stroke-linecap="round"
     stroke-linejoin="round"
     stroke-width="0.755906"
     id="path105" />
  <path
     d="m 99.988281 23.144531 l -0.007812 -3.378906"
     fill="#26a269"
     stroke="#26a269"
     stroke-linecap="round"
     stroke-linejoin="round"
     stroke-width="0.755906"
     id="path106" />
  <path
     d="m 86.3125 13.503906 l -0.003906 -3.457031"
     fill="#26a269"
     stroke="#26a269"
     stroke-linecap="round"
     stroke-linejoin="round"
     stroke-width="0.755906"
     id="path107" />
  <path
     d="m 63.863281 15.785156 l -0.003906 -3.460938"
     fill="#26a269"
     stroke="#26a269"
     stroke-linecap="round"
     stroke-linejoin="round"
     stroke-width="0.755906"
     id="path108" />
  <path
     d="m 99.695313 23.144531 l -0.003907 -3.378906"
     fill="#26a269"
     stroke="#26a269"
     stroke-linecap="round"
     stroke-linejoin="round"
     stroke-width="0.755906"
     id="path109" />
  <path
     d="m 91.128906 63.03125 l -0.003906 -3.394532"
     fill="#26a269"
     stroke="#26a269"
     stroke-linecap="round"
     stroke-linejoin="round"
     stroke-width="0.755906"
     id="path110" />
  <path
     d="m 55.394531 55.652343 l -0.003906 -3.402343"
     fill="#26a269"
     stroke="#26a269"
     stroke-linecap="round"
     stroke-linejoin="round"
     stroke-width="0.755906"
     id="path111" />
  <path
     d="m 49.410156 40.644531 l -0.003906 -3.402344"
     fill="#26a269"
     stroke="#26a269"
     stroke-linecap="round"
     stroke-linejoin="round"
     stroke-width="0.755906"
     id="path112" />
  <path
     d="m 81.207031 7.695312 c -3.847656 0.136719 0.695313 5.070313 -6.066406 5.78125 c -7.722656 0.808594 -2.160156 -6.839843 -9.253906 -3.679687 c -7.097657 3.160156 2.3125 4.140625 -3.460938 9.339844 c -5.773437 5.195312 -5.761719 -4.265625 -9.648437 2.464843 c -3.882813 6.726563 4.304687 1.988282 2.691406 9.585938 c -1.617188 7.597656 -7.171875 -0.058594 -6.359375 7.667969 c 0.8125 7.722656 4.652344 -0.921875 7.8125 6.175781 c 3.160156 7.09375 -5.835937 4.164062 -0.636719 9.9375 c 5.195313 5.769531 3.222656 -3.480469 9.949219 0.402344 c 6.726563 3.882812 -2.269531 6.800781 5.328125 8.417968 c 7.597656 1.613282 0.5625 -4.710937 8.285156 -5.523437 c 7.726563 -0.8125 2.160156 6.835937 9.257813 3.679687 c 7.09375 -3.160156 -2.316407 -4.140624 3.457031 -9.339843 s 5.765625 4.261719 9.648438 -2.464844 c 3.886718 -6.726563 -4.304688 -1.988281 -2.6875 -9.585937 c 1.613281 -7.601563 7.167968 0.058593 6.355468 -7.667969 c -0.8125 -7.726563 -4.652344 0.921875 -7.8125 -6.175781 c -3.160156 -7.097657 5.835938 -4.167969 0.640625 -9.9375 c -5.199219 -5.773438 -3.226562 3.476562 -9.953125 -0.40625 c -6.726562 -3.882813 2.273438 -6.796876 -5.324218 -8.414063 c -0.949219 -0.203125 -1.671876 -0.277344 -2.222657 -0.257813 z m -3.710937 17.820313 c 5.71875 0 10.355468 4.632813 10.355468 10.355469 c 0 5.71875 -4.636718 10.355468 -10.355468 10.355468 c -5.722656 0 -10.359375 -4.636718 -10.359375 -10.355468 c 0.003906 -5.722656 4.640625 -10.355469 10.359375 -10.355469 z m 0 0"
     fill="#19cf08"
     id="path113" />
  <path
     d="m 47.496094 60.15625 c -2.421875 0.085938 0.4375 3.191406 -3.820313 3.636719 c -4.863281 0.511719 -1.359375 -4.304688 -5.824219 -2.3125 c -4.46875 1.988281 1.453126 2.605469 -2.179687 5.875 c -3.632813 3.273437 -3.628906 -2.679688 -6.074219 1.554687 c -2.445312 4.234375 2.710938 1.25 1.695313 6.035156 c -1.019531 4.785157 -4.515625 -0.039062 -4.003907 4.824219 c 0.511719 4.867188 2.929688 -0.578125 4.917969 3.890625 s -3.675781 2.621094 -0.402343 6.253906 c 3.273437 3.636719 2.03125 -2.1875 6.265624 0.257813 c 4.234376 2.445313 -1.429687 4.28125 3.351563 5.296875 c 4.785156 1.015625 0.355469 -2.964844 5.21875 -3.476562 c 4.863281 -0.511719 1.359375 4.304687 5.828125 2.316406 c 4.464844 -1.988282 -1.457031 -2.605469 2.175781 -5.878906 c 3.636719 -3.273438 3.628907 2.683593 6.074219 -1.550782 c 2.445312 -4.238281 -2.710938 -1.253906 -1.691406 -6.039062 c 1.015625 -4.78125 4.511718 0.039062 4 -4.824219 c -0.511719 -4.863281 -2.929688 0.578125 -4.917969 -3.886719 c -1.988281 -4.46875 3.675781 -2.625 0.402344 -6.257812 c -3.273438 -3.636719 -2.027344 2.1875 -6.265625 -0.257813 c -4.234375 -2.445312 1.433594 -4.277343 -3.351563 -5.296875 c -0.597656 -0.125 -1.050781 -0.175781 -1.398437 -0.160156 z m -2.335938 11.21875 c 3.597656 0 6.519532 2.917969 6.519532 6.519531 c 0 3.597657 -2.917969 6.519531 -6.519532 6.519531 c -3.601562 0 -6.523437 -2.921874 -6.523437 -6.519531 c 0.003906 -3.601562 2.921875 -6.519531 6.523437 -6.519531 z m 0 0"
     fill="#0057ab"
     id="path114" />
  <path
     d="m 53.9804151028 92.82435186646 l -0.00390640118 -2.16406315497"
     fill="#0057ab"
     stroke="#0057ab"
     stroke-linecap="round"
     stroke-linejoin="round"
     stroke-width="0.47588591364"
     id="path115" />
  <path
     d="m 61.14447975968 85.07825609707 l -0.00390640119 -2.18359453133"
     fill="#0057ab"
     stroke="#0057ab"
     stroke-linecap="round"
     stroke-linejoin="round"
     stroke-width="0.47588591364"
     id="path116" />
  <path
     d="m 36.8125 69.167969 v 8.726562 h 1.824219 c 0.003906 -3.601562 2.921875 -6.519531 6.523437 -6.519531 c 3.597656 0 6.519532 2.917969 6.519532 6.519531 h 2.183593 v -8.726562 z m 0 0"
     fill="#043b70"
     id="path117" />
  <path
     d="m 36.33197321142 62.95715608836 v -2.14062537741"
     fill="none"
     stroke="#0057ab"
     stroke-linecap="round"
     stroke-linejoin="round"
     stroke-width="0.47588591364"
     id="path118" />
  <path
     d="m 29.17572135691 70.73840820931 l -0.00390640118 -2.16015675378"
     fill="none"
     stroke="#0057ab"
     stroke-linecap="round"
     stroke-linejoin="round"
     stroke-width="0.47588591364"
     id="path119" />
  <path
     d="m 31.00775300229 88.17591262094 l -0.00390640118 -2.16796892659"
     fill="#0057ab"
     stroke="#0057ab"
     stroke-linecap="round"
     stroke-linejoin="round"
     stroke-width="0.47588591364"
     id="path120" />
  <path
     d="m 39.60931789423 94.13685230006 l -0.00390640118 -2.10546965542"
     fill="#0057ab"
     stroke="#0057ab"
     stroke-linecap="round"
     stroke-linejoin="round"
     stroke-width="0.47588591364"
     id="path121" />
  <path
     d="m 62.83979240005 77.07434729282 v -2.16406315497"
     fill="none"
     stroke="#0057ab"
     stroke-linecap="round"
     stroke-linejoin="round"
     stroke-width="0.47588591364"
     id="path122" />
  <path
     d="m 59.31635388593 67.71106375898 v -2.16796955615"
     fill="none"
     stroke="#0057ab"
     stroke-linecap="round"
     stroke-linejoin="round"
     stroke-width="0.47588591364"
     id="path123" />
  <path
     d="m 50.70697682117 61.64465565476 v -2.17968750059"
     fill="none"
     stroke="#0057ab"
     stroke-linecap="round"
     stroke-linejoin="round"
     stroke-width="0.47588591364"
     id="path124" />
  <path
     d="m 59.078072857 67.67981380861 v -2.16796955615"
     fill="none"
     stroke="#0057ab"
     stroke-linecap="round"
     stroke-linejoin="round"
     stroke-width="0.47588591364"
     id="path125" />
  <path
     d="m 53.74213407387 92.82435186646 l -0.00390640118 -2.16406315497"
     fill="#0057ab"
     stroke="#0057ab"
     stroke-linecap="round"
     stroke-linejoin="round"
     stroke-width="0.47588591364"
     id="path126" />
  <path
     d="m 31.00775300229 88.17591262094 c 0.36328145995 -0.68750016717 0.26562520767 -1.4179688587 -0.00390640118 -2.16796892659"
     fill="#0057ab"
     stroke="#0057ab"
     stroke-linecap="round"
     stroke-linejoin="round"
     stroke-width="0.47588591364"
     id="path127" />
  <path
     d="m 27.48040808699 78.77747273555 l -0.00390640119 -2.10156262468"
     fill="#0057ab"
     stroke="#0057ab"
     stroke-linecap="round"
     stroke-linejoin="round"
     stroke-width="0.47588591364"
     id="path128" />
  <path
     d="m 36.57416064153 62.95715608836 l -0.00390640118 -2.14062537741"
     fill="none"
     stroke="#0057ab"
     stroke-linecap="round"
     stroke-linejoin="round"
     stroke-width="0.47588591364"
     id="path129" />
  <path
     d="m 47.496094 57.957031 c -2.421875 0.085938 0.4375 3.191407 -3.820313 3.640625 c -4.863281 0.507813 -1.359375 -4.304687 -5.824219 -2.316406 c -4.46875 1.988281 1.453126 2.605469 -2.179687 5.878906 c -3.632813 3.269532 -3.628906 -2.683594 -6.074219 1.550782 c -2.445312 4.234374 2.710938 1.253906 1.695313 6.035156 c -1.019531 4.785156 -4.515625 -0.035156 -4.003907 4.828125 c 0.511719 4.863281 2.929688 -0.582031 4.917969 3.886719 s -3.675781 2.621093 -0.402343 6.257812 c 3.273437 3.632812 2.03125 -2.191406 6.265624 0.253906 c 4.234376 2.445313 -1.429687 4.28125 3.351563 5.296875 c 4.785156 1.019531 0.355469 -2.964843 5.21875 -3.476562 c 4.863281 -0.507813 1.359375 4.304687 5.828125 2.316406 c 4.464844 -1.988281 -1.457031 -2.605469 2.175781 -5.878906 c 3.636719 -3.273438 3.628907 2.683593 6.074219 -1.550781 c 2.445312 -4.234376 -2.710938 -1.253907 -1.691406 -6.035157 c 1.015625 -4.785156 4.511718 0.035157 4 -4.828125 c -0.511719 -4.863281 -2.929688 0.582032 -4.917969 -3.886718 s 3.675781 -2.625 0.402344 -6.257813 c -3.273438 -3.632813 -2.027344 2.191406 -6.265625 -0.253906 c -4.234375 -2.445313 1.433594 -4.28125 -3.351563 -5.296875 c -0.597656 -0.128906 -1.050781 -0.175782 -1.398437 -0.164063 z m -2.335938 11.21875 c 3.597656 0 6.519532 2.917969 6.519532 6.519531 c 0 3.601563 -2.917969 6.519532 -6.519532 6.519532 c -3.601562 0 -6.523437 -2.917969 -6.523437 -6.519532 c 0.003906 -3.601562 2.921875 -6.519531 6.523437 -6.519531 z m 0 0"
     fill="#3e96ff"
     id="path130" />
</svg>
