<?xml version="1.0" encoding="UTF-8"?>
<svg height="128px" viewBox="0 0 128 128" width="128px" xmlns="http://www.w3.org/2000/svg" xmlns:xlink="http://www.w3.org/1999/xlink">
    <filter id="a" height="100%" width="100%" x="0%" y="0%">
        <feColorMatrix in="SourceGraphic" type="matrix" values="0 0 0 0 1 0 0 0 0 1 0 0 0 0 1 0 0 0 1 0"/>
    </filter>
    <mask id="b">
        <g filter="url(#a)">
            <rect fill-opacity="0.3" height="128" width="128"/>
        </g>
    </mask>
    <clipPath id="c">
        <rect height="152" width="192"/>
    </clipPath>
    <mask id="d">
        <g filter="url(#a)">
            <rect fill-opacity="0.237923" height="128" width="128"/>
        </g>
    </mask>
    <clipPath id="e">
        <rect height="152" width="192"/>
    </clipPath>
    <mask id="f">
        <g filter="url(#a)">
            <rect fill-opacity="0.237923" height="128" width="128"/>
        </g>
    </mask>
    <clipPath id="g">
        <rect height="152" width="192"/>
    </clipPath>
    <path d="m 108 115.496094 h -88 c -4.417969 0 -8 -3.582032 -8 -8 v -80 c 0 -4.417969 3.582031 -8 8 -8 h 88 c 4.417969 0 8 3.582031 8 8 v 80 c 0 4.417968 -3.582031 8 -8 8 z m 0 0" fill="#27b41a"/>
    <path d="m 108 113.496094 h -88 c -4.417969 0 -8 -3.582032 -8 -8 v -80 c 0 -4.417969 3.582031 -8 8 -8 h 88 c 4.417969 0 8 3.582031 8 8 v 80 c 0 4.417968 -3.582031 8 -8 8 z m 0 0" fill="#d5d3cf"/>
    <path d="m 108 107.496094 h -88 c -4.417969 0 -8 -3.582032 -8 -8 v -80 c 0 -4.417969 3.582031 -8 8 -8 h 88 c 4.417969 0 8 3.582031 8 8 v 80 c 0 4.417968 -3.582031 8 -8 8 z m 0 0" fill="#f6f5f4"/>
    <g fill="#d5d3cf">
        <path d="m 110 79.496094 c 0 1.101562 -0.894531 2 -2 2 s -2 -0.898438 -2 -2 c 0 -1.105469 0.894531 -2 2 -2 s 2 0.894531 2 2 z m 0 0"/>
        <path d="m 110 69.496094 c 0 1.101562 -0.894531 2 -2 2 s -2 -0.898438 -2 -2 c 0 -1.105469 0.894531 -2 2 -2 s 2 0.894531 2 2 z m 0 0"/>
        <path d="m 110 59.496094 c 0 1.101562 -0.894531 2 -2 2 s -2 -0.898438 -2 -2 c 0 -1.105469 0.894531 -2 2 -2 s 2 0.894531 2 2 z m 0 0"/>
        <path d="m 110 49.496094 c 0 1.101562 -0.894531 2 -2 2 s -2 -0.898438 -2 -2 c 0 -1.105469 0.894531 -2 2 -2 s 2 0.894531 2 2 z m 0 0"/>
        <path d="m 110 39.496094 c 0 1.101562 -0.894531 2 -2 2 s -2 -0.898438 -2 -2 c 0 -1.105469 0.894531 -2 2 -2 s 2 0.894531 2 2 z m 0 0"/>
        <path d="m 110 29.496094 c 0 1.101562 -0.894531 2 -2 2 s -2 -0.898438 -2 -2 c 0 -1.105469 0.894531 -2 2 -2 s 2 0.894531 2 2 z m 0 0"/>
        <path d="m 110 19.496094 c 0 1.101562 -0.894531 2 -2 2 s -2 -0.898438 -2 -2 c 0 -1.105469 0.894531 -2 2 -2 s 2 0.894531 2 2 z m 0 0"/>
        <path d="m 22 99.496094 c 0 1.101562 -0.894531 2 -2 2 s -2 -0.898438 -2 -2 c 0 -1.105469 0.894531 -2 2 -2 s 2 0.894531 2 2 z m 0 0"/>
        <path d="m 22 89.496094 c 0 1.101562 -0.894531 2 -2 2 s -2 -0.898438 -2 -2 c 0 -1.105469 0.894531 -2 2 -2 s 2 0.894531 2 2 z m 0 0"/>
        <path d="m 22 79.496094 c 0 1.101562 -0.894531 2 -2 2 s -2 -0.898438 -2 -2 c 0 -1.105469 0.894531 -2 2 -2 s 2 0.894531 2 2 z m 0 0"/>
        <path d="m 22 69.496094 c 0 1.101562 -0.894531 2 -2 2 s -2 -0.898438 -2 -2 c 0 -1.105469 0.894531 -2 2 -2 s 2 0.894531 2 2 z m 0 0"/>
        <path d="m 22 59.496094 c 0 1.101562 -0.894531 2 -2 2 s -2 -0.898438 -2 -2 c 0 -1.105469 0.894531 -2 2 -2 s 2 0.894531 2 2 z m 0 0"/>
        <path d="m 22 49.496094 c 0 1.101562 -0.894531 2 -2 2 s -2 -0.898438 -2 -2 c 0 -1.105469 0.894531 -2 2 -2 s 2 0.894531 2 2 z m 0 0"/>
        <path d="m 22 39.496094 c 0 1.101562 -0.894531 2 -2 2 s -2 -0.898438 -2 -2 c 0 -1.105469 0.894531 -2 2 -2 s 2 0.894531 2 2 z m 0 0"/>
        <path d="m 22 29.496094 c 0 1.101562 -0.894531 2 -2 2 s -2 -0.898438 -2 -2 c 0 -1.105469 0.894531 -2 2 -2 s 2 0.894531 2 2 z m 0 0"/>
        <path d="m 22 19.496094 c 0 1.101562 -0.894531 2 -2 2 s -2 -0.898438 -2 -2 c 0 -1.105469 0.894531 -2 2 -2 s 2 0.894531 2 2 z m 0 0"/>
    </g>
    <g clip-path="url(#c)" fill="none" mask="url(#b)" stroke="#d5d3cf" transform="matrix(1 0 0 1 -8 -16)">
        <g stroke-width="2">
            <path d="m 27.999969 192.00116 h 72" transform="matrix(1 0 0 1 8.000031 -157.505066)"/>
            <path d="m 27.999969 202.00116 h 72" transform="matrix(1 0 0 1 8.000031 -157.505066)"/>
            <path d="m 27.999969 212.00116 h 72" transform="matrix(1 0 0 1 8.000031 -157.505066)"/>
            <path d="m 27.999969 222.00116 h 72" transform="matrix(1 0 0 1 8.000031 -157.505066)"/>
            <path d="m 27.999969 232.00116 h 72" transform="matrix(1 0 0 1 8.000031 -157.505066)"/>
            <path d="m 27.999969 242.00116 h 72" transform="matrix(1 0 0 1 8.000031 -157.505066)"/>
            <path d="m 27.999969 252.00116 h 72" transform="matrix(1 0 0 1 8.000031 -157.505066)"/>
            <path d="m 27.999969 262.00116 h 72" transform="matrix(1 0 0 1 8.000031 -157.505066)"/>
        </g>
        <path d="m 27.999969 272.00116 h 72" stroke-width="2.08893" transform="matrix(1 0 0 1 8.000031 -157.505066)"/>
    </g>
    <g clip-path="url(#e)" mask="url(#d)" transform="matrix(1 0 0 1 -8 -16)">
        <path d="m 89.207031 34.316406 c -3.847656 0.140625 0.695313 5.070313 -6.066406 5.78125 c -7.722656 0.8125 -2.160156 -6.835937 -9.253906 -3.675781 c -7.097657 3.15625 2.3125 4.136719 -3.460938 9.335937 c -5.773437 5.199219 -5.761719 -4.261718 -9.648437 2.464844 c -3.882813 6.726563 4.304687 1.988282 2.691406 9.589844 c -1.617188 7.597656 -7.171875 -0.0625 -6.359375 7.664062 c 0.8125 7.726563 4.652344 -0.921874 7.8125 6.175782 s -5.835937 4.164062 -0.636719 9.9375 c 5.195313 5.773437 3.222656 -3.480469 9.949219 0.40625 c 6.726563 3.882812 -2.269531 6.800781 5.328125 8.414062 c 7.597656 1.613282 0.5625 -4.710937 8.285156 -5.519531 c 7.726563 -0.8125 2.160156 6.835937 9.257813 3.675781 c 7.09375 -3.160156 -2.316407 -4.140625 3.457031 -9.335937 c 5.773438 -5.199219 5.765625 4.261719 9.648438 -2.464844 c 3.886718 -6.730469 -4.304688 -1.992187 -2.6875 -9.589844 c 1.613281 -7.597656 7.167968 0.058594 6.355468 -7.664062 c -0.8125 -7.726563 -4.652344 0.917969 -7.8125 -6.175781 c -3.160156 -7.097657 5.835938 -4.167969 0.640625 -9.941407 c -5.199219 -5.773437 -3.226562 3.480469 -9.953125 -0.402343 c -6.726562 -3.886719 2.273438 -6.800782 -5.324218 -8.414063 c -0.949219 -0.203125 -1.671876 -0.28125 -2.222657 -0.261719 z m -3.710937 17.820313 c 5.71875 0 10.355468 4.636719 10.355468 10.355469 s -4.636718 10.359374 -10.355468 10.359374 c -5.722656 0 -10.359375 -4.640624 -10.359375 -10.359374 c 0.003906 -5.71875 4.640625 -10.355469 10.359375 -10.355469 z m 0 0"/>
    </g>
    <g clip-path="url(#g)" mask="url(#f)" transform="matrix(1 0 0 1 -8 -16)">
        <path d="m 55.496094 84.578125 c -2.421875 0.089844 0.4375 3.191406 -3.820313 3.640625 c -4.863281 0.511719 -1.359375 -4.304688 -5.824219 -2.316406 c -4.46875 1.988281 1.453126 2.605468 -2.179687 5.878906 s -3.628906 -2.683594 -6.074219 1.550781 c -2.445312 4.238281 2.710938 1.253907 1.695313 6.039063 c -1.019531 4.78125 -4.515625 -0.039063 -4.003907 4.824218 c 0.511719 4.863282 2.929688 -0.578124 4.917969 3.890626 c 1.988281 4.464843 -3.675781 2.621093 -0.402343 6.253906 c 3.273437 3.632812 2.03125 -2.191406 6.265624 0.253906 c 4.234376 2.445312 -1.429687 4.28125 3.351563 5.300781 c 4.785156 1.015625 0.355469 -2.964843 5.21875 -3.476562 s 1.359375 4.304687 5.828125 2.316406 c 4.464844 -1.992187 -1.457031 -2.609375 2.175781 -5.878906 c 3.636719 -3.273438 3.628907 2.683593 6.074219 -1.554688 c 2.445312 -4.234375 -2.710938 -1.25 -1.691406 -6.035156 c 1.015625 -4.785156 4.511718 0.039063 4 -4.824219 c -0.511719 -4.867187 -2.929688 0.578125 -4.917969 -3.890625 c -1.988281 -4.464843 3.675781 -2.621093 0.402344 -6.257812 c -3.273438 -3.632813 -2.027344 2.191406 -6.265625 -0.253907 c -4.234375 -2.445312 1.433594 -4.28125 -3.351563 -5.296874 c -0.597656 -0.125 -1.050781 -0.175782 -1.398437 -0.164063 z m -2.335938 11.21875 c 3.597656 0 6.519532 2.917969 6.519532 6.519531 c 0 3.601563 -2.917969 6.523438 -6.519532 6.519532 c -3.601562 0.003906 -6.523437 -2.917969 -6.523437 -6.519532 c 0.003906 -3.601562 2.921875 -6.519531 6.523437 -6.519531 z m 0 0"/>
    </g>
    <path d="m 81.207031 11.136719 c -3.847656 0.140625 0.695313 5.074219 -6.066406 5.78125 c -7.722656 0.8125 -2.160156 -6.835938 -9.253906 -3.675781 c -7.097657 3.160156 2.3125 4.140624 -3.460938 9.335937 c -5.773437 5.199219 -5.761719 -4.261719 -9.648437 2.464844 c -3.882813 6.730469 4.304687 1.992187 2.691406 9.589843 c -1.617188 7.597657 -7.171875 -0.058593 -6.359375 7.664063 c 0.8125 7.726563 4.652344 -0.917969 7.8125 6.175781 c 3.160156 7.097656 -5.835937 4.167969 -0.636719 9.9375 c 5.195313 5.773438 3.222656 -3.476562 9.949219 0.40625 c 6.726563 3.882813 -2.269531 6.800782 5.328125 8.414063 c 7.597656 1.617187 0.5625 -4.707031 8.285156 -5.519531 c 7.726563 -0.8125 2.160156 6.835937 9.257813 3.675781 c 7.09375 -3.15625 -2.316407 -4.136719 3.457031 -9.335938 s 5.765625 4.261719 9.648438 -2.464843 c 3.886718 -6.726563 -4.304688 -1.988282 -2.6875 -9.589844 c 1.613281 -7.597656 7.167968 0.0625 6.355468 -7.664063 c -0.8125 -7.726562 -4.652344 0.921875 -7.8125 -6.175781 s 5.835938 -4.167969 0.640625 -9.941406 c -5.199219 -5.769532 -3.226562 3.480468 -9.953125 -0.402344 c -6.726562 -3.882812 2.273438 -6.800781 -5.324218 -8.414062 c -0.949219 -0.203126 -1.671876 -0.28125 -2.222657 -0.261719 z m -3.710937 17.820312 c 5.71875 0 10.355468 4.636719 10.355468 10.355469 c 0 5.722656 -4.636718 10.359375 -10.355468 10.359375 c -5.722656 0 -10.359375 -4.636719 -10.359375 -10.359375 c 0.003906 -5.71875 4.640625 -10.355469 10.359375 -10.355469 z m 0 0" fill="#26a269"/>
    <path d="m 91.507813 63.03125 l -0.003907 -3.394532" fill="#26a269" stroke="#26a269" stroke-linecap="round" stroke-linejoin="round" stroke-width="0.755906"/>
    <path d="m 102.886719 50.726562 l -0.003906 -3.492187" fill="#26a269" stroke="#26a269" stroke-linecap="round" stroke-linejoin="round" stroke-width="0.755906"/>
    <path d="m 64.238281 25.457031 v 13.855469 h 2.898438 c 0.003906 -5.71875 4.640625 -10.355469 10.359375 -10.355469 s 10.355468 4.636719 10.355468 10.355469 h 3.46875 v -13.855469 z m 0 0" fill="#187c0e"/>
    <path d="m 63.476563 15.785156 l -0.003907 -3.460938" fill="#26a269" stroke="#26a269" stroke-linecap="round" stroke-linejoin="round" stroke-width="0.755906"/>
    <path d="m 52.105469 27.949218 l -0.003906 -3.34375" fill="#26a269" stroke="#26a269" stroke-linecap="round" stroke-linejoin="round" stroke-width="0.755906"/>
    <path d="m 55.015625 55.652343 l -0.003906 -3.402343" fill="#26a269" stroke="#26a269" stroke-linecap="round" stroke-linejoin="round" stroke-width="0.755906"/>
    <path d="m 68.671875 65.125 l -0.003906 -3.363282" fill="#26a269" stroke="#26a269" stroke-linecap="round" stroke-linejoin="round" stroke-width="0.755906"/>
    <path d="m 105.582031 38.015625 l -0.003906 -3.4375" fill="#26a269" stroke="#26a269" stroke-linecap="round" stroke-linejoin="round" stroke-width="0.755906"/>
    <path d="m 99.988281 23.144531 l -0.007812 -3.378906" fill="#26a269" stroke="#26a269" stroke-linecap="round" stroke-linejoin="round" stroke-width="0.755906"/>
    <path d="m 86.3125 13.503906 l -0.003906 -3.457031" fill="#26a269" stroke="#26a269" stroke-linecap="round" stroke-linejoin="round" stroke-width="0.755906"/>
    <path d="m 63.863281 15.785156 l -0.003906 -3.460938" fill="#26a269" stroke="#26a269" stroke-linecap="round" stroke-linejoin="round" stroke-width="0.755906"/>
    <path d="m 99.695313 23.144531 l -0.003907 -3.378906" fill="#26a269" stroke="#26a269" stroke-linecap="round" stroke-linejoin="round" stroke-width="0.755906"/>
    <path d="m 91.128906 63.03125 l -0.003906 -3.394532" fill="#26a269" stroke="#26a269" stroke-linecap="round" stroke-linejoin="round" stroke-width="0.755906"/>
    <path d="m 55.394531 55.652343 l -0.003906 -3.402343" fill="#26a269" stroke="#26a269" stroke-linecap="round" stroke-linejoin="round" stroke-width="0.755906"/>
    <path d="m 49.410156 40.644531 l -0.003906 -3.402344" fill="#26a269" stroke="#26a269" stroke-linecap="round" stroke-linejoin="round" stroke-width="0.755906"/>
    <path d="m 81.207031 7.695312 c -3.847656 0.136719 0.695313 5.070313 -6.066406 5.78125 c -7.722656 0.808594 -2.160156 -6.839843 -9.253906 -3.679687 c -7.097657 3.160156 2.3125 4.140625 -3.460938 9.339844 c -5.773437 5.195312 -5.761719 -4.265625 -9.648437 2.464843 c -3.882813 6.726563 4.304687 1.988282 2.691406 9.585938 c -1.617188 7.597656 -7.171875 -0.058594 -6.359375 7.667969 c 0.8125 7.722656 4.652344 -0.921875 7.8125 6.175781 c 3.160156 7.09375 -5.835937 4.164062 -0.636719 9.9375 c 5.195313 5.769531 3.222656 -3.480469 9.949219 0.402344 c 6.726563 3.882812 -2.269531 6.800781 5.328125 8.417968 c 7.597656 1.613282 0.5625 -4.710937 8.285156 -5.523437 c 7.726563 -0.8125 2.160156 6.835937 9.257813 3.679687 c 7.09375 -3.160156 -2.316407 -4.140624 3.457031 -9.339843 s 5.765625 4.261719 9.648438 -2.464844 c 3.886718 -6.726563 -4.304688 -1.988281 -2.6875 -9.585937 c 1.613281 -7.601563 7.167968 0.058593 6.355468 -7.667969 c -0.8125 -7.726563 -4.652344 0.921875 -7.8125 -6.175781 c -3.160156 -7.097657 5.835938 -4.167969 0.640625 -9.9375 c -5.199219 -5.773438 -3.226562 3.476562 -9.953125 -0.40625 c -6.726562 -3.882813 2.273438 -6.796876 -5.324218 -8.414063 c -0.949219 -0.203125 -1.671876 -0.277344 -2.222657 -0.257813 z m -3.710937 17.820313 c 5.71875 0 10.355468 4.632813 10.355468 10.355469 c 0 5.71875 -4.636718 10.355468 -10.355468 10.355468 c -5.722656 0 -10.359375 -4.636718 -10.359375 -10.355468 c 0.003906 -5.722656 4.640625 -10.355469 10.359375 -10.355469 z m 0 0" fill="#19cf08"/>
    <path d="m 47.496094 60.15625 c -2.421875 0.085938 0.4375 3.191406 -3.820313 3.636719 c -4.863281 0.511719 -1.359375 -4.304688 -5.824219 -2.3125 c -4.46875 1.988281 1.453126 2.605469 -2.179687 5.875 c -3.632813 3.273437 -3.628906 -2.679688 -6.074219 1.554687 c -2.445312 4.234375 2.710938 1.25 1.695313 6.035156 c -1.019531 4.785157 -4.515625 -0.039062 -4.003907 4.824219 c 0.511719 4.867188 2.929688 -0.578125 4.917969 3.890625 s -3.675781 2.621094 -0.402343 6.253906 c 3.273437 3.636719 2.03125 -2.1875 6.265624 0.257813 c 4.234376 2.445313 -1.429687 4.28125 3.351563 5.296875 c 4.785156 1.015625 0.355469 -2.964844 5.21875 -3.476562 c 4.863281 -0.511719 1.359375 4.304687 5.828125 2.316406 c 4.464844 -1.988282 -1.457031 -2.605469 2.175781 -5.878906 c 3.636719 -3.273438 3.628907 2.683593 6.074219 -1.550782 c 2.445312 -4.238281 -2.710938 -1.253906 -1.691406 -6.039062 c 1.015625 -4.78125 4.511718 0.039062 4 -4.824219 c -0.511719 -4.863281 -2.929688 0.578125 -4.917969 -3.886719 c -1.988281 -4.46875 3.675781 -2.625 0.402344 -6.257812 c -3.273438 -3.636719 -2.027344 2.1875 -6.265625 -0.257813 c -4.234375 -2.445312 1.433594 -4.277343 -3.351563 -5.296875 c -0.597656 -0.125 -1.050781 -0.175781 -1.398437 -0.160156 z m -2.335938 11.21875 c 3.597656 0 6.519532 2.917969 6.519532 6.519531 c 0 3.597657 -2.917969 6.519531 -6.519532 6.519531 c -3.601562 0 -6.523437 -2.921874 -6.523437 -6.519531 c 0.003906 -3.601562 2.921875 -6.519531 6.523437 -6.519531 z m 0 0" fill="#0057ab"/>
    <path d="m 53.9804151028 92.82435186646 l -0.00390640118 -2.16406315497" fill="#0057ab" stroke="#0057ab" stroke-linecap="round" stroke-linejoin="round" stroke-width="0.47588591364"/>
    <path d="m 61.14447975968 85.07825609707 l -0.00390640119 -2.18359453133" fill="#0057ab" stroke="#0057ab" stroke-linecap="round" stroke-linejoin="round" stroke-width="0.47588591364"/>
    <path d="m 36.8125 69.167969 v 8.726562 h 1.824219 c 0.003906 -3.601562 2.921875 -6.519531 6.523437 -6.519531 c 3.597656 0 6.519532 2.917969 6.519532 6.519531 h 2.183593 v -8.726562 z m 0 0" fill="#043b70"/>
    <path d="m 36.33197321142 62.95715608836 v -2.14062537741" fill="none" stroke="#0057ab" stroke-linecap="round" stroke-linejoin="round" stroke-width="0.47588591364"/>
    <path d="m 29.17572135691 70.73840820931 l -0.00390640118 -2.16015675378" fill="none" stroke="#0057ab" stroke-linecap="round" stroke-linejoin="round" stroke-width="0.47588591364"/>
    <path d="m 31.00775300229 88.17591262094 l -0.00390640118 -2.16796892659" fill="#0057ab" stroke="#0057ab" stroke-linecap="round" stroke-linejoin="round" stroke-width="0.47588591364"/>
    <path d="m 39.60931789423 94.13685230006 l -0.00390640118 -2.10546965542" fill="#0057ab" stroke="#0057ab" stroke-linecap="round" stroke-linejoin="round" stroke-width="0.47588591364"/>
    <path d="m 62.83979240005 77.07434729282 v -2.16406315497" fill="none" stroke="#0057ab" stroke-linecap="round" stroke-linejoin="round" stroke-width="0.47588591364"/>
    <path d="m 59.31635388593 67.71106375898 v -2.16796955615" fill="none" stroke="#0057ab" stroke-linecap="round" stroke-linejoin="round" stroke-width="0.47588591364"/>
    <path d="m 50.70697682117 61.64465565476 v -2.17968750059" fill="none" stroke="#0057ab" stroke-linecap="round" stroke-linejoin="round" stroke-width="0.47588591364"/>
    <path d="m 59.078072857 67.67981380861 v -2.16796955615" fill="none" stroke="#0057ab" stroke-linecap="round" stroke-linejoin="round" stroke-width="0.47588591364"/>
    <path d="m 53.74213407387 92.82435186646 l -0.00390640118 -2.16406315497" fill="#0057ab" stroke="#0057ab" stroke-linecap="round" stroke-linejoin="round" stroke-width="0.47588591364"/>
    <path d="m 31.00775300229 88.17591262094 c 0.36328145995 -0.68750016717 0.26562520767 -1.4179688587 -0.00390640118 -2.16796892659" fill="#0057ab" stroke="#0057ab" stroke-linecap="round" stroke-linejoin="round" stroke-width="0.47588591364"/>
    <path d="m 27.48040808699 78.77747273555 l -0.00390640119 -2.10156262468" fill="#0057ab" stroke="#0057ab" stroke-linecap="round" stroke-linejoin="round" stroke-width="0.47588591364"/>
    <path d="m 36.57416064153 62.95715608836 l -0.00390640118 -2.14062537741" fill="none" stroke="#0057ab" stroke-linecap="round" stroke-linejoin="round" stroke-width="0.47588591364"/>
    <path d="m 47.496094 57.957031 c -2.421875 0.085938 0.4375 3.191407 -3.820313 3.640625 c -4.863281 0.507813 -1.359375 -4.304687 -5.824219 -2.316406 c -4.46875 1.988281 1.453126 2.605469 -2.179687 5.878906 c -3.632813 3.269532 -3.628906 -2.683594 -6.074219 1.550782 c -2.445312 4.234374 2.710938 1.253906 1.695313 6.035156 c -1.019531 4.785156 -4.515625 -0.035156 -4.003907 4.828125 c 0.511719 4.863281 2.929688 -0.582031 4.917969 3.886719 s -3.675781 2.621093 -0.402343 6.257812 c 3.273437 3.632812 2.03125 -2.191406 6.265624 0.253906 c 4.234376 2.445313 -1.429687 4.28125 3.351563 5.296875 c 4.785156 1.019531 0.355469 -2.964843 5.21875 -3.476562 c 4.863281 -0.507813 1.359375 4.304687 5.828125 2.316406 c 4.464844 -1.988281 -1.457031 -2.605469 2.175781 -5.878906 c 3.636719 -3.273438 3.628907 2.683593 6.074219 -1.550781 c 2.445312 -4.234376 -2.710938 -1.253907 -1.691406 -6.035157 c 1.015625 -4.785156 4.511718 0.035157 4 -4.828125 c -0.511719 -4.863281 -2.929688 0.582032 -4.917969 -3.886718 s 3.675781 -2.625 0.402344 -6.257813 c -3.273438 -3.632813 -2.027344 2.191406 -6.265625 -0.253906 c -4.234375 -2.445313 1.433594 -4.28125 -3.351563 -5.296875 c -0.597656 -0.128906 -1.050781 -0.175782 -1.398437 -0.164063 z m -2.335938 11.21875 c 3.597656 0 6.519532 2.917969 6.519532 6.519531 c 0 3.601563 -2.917969 6.519532 -6.519532 6.519532 c -3.601562 0 -6.523437 -2.917969 -6.523437 -6.519532 c 0.003906 -3.601562 2.921875 -6.519531 6.523437 -6.519531 z m 0 0" fill="#3e96ff"/>
    <path d="m 110 99.496094 c 0 1.101562 -0.894531 2 -2 2 s -2 -0.898438 -2 -2 c 0 -1.105469 0.894531 -2 2 -2 s 2 0.894531 2 2 z m 0 0" fill="#d5d3cf"/>
    <path d="m 110 89.496094 c 0 1.101562 -0.894531 2 -2 2 s -2 -0.898438 -2 -2 c 0 -1.105469 0.894531 -2 2 -2 s 2 0.894531 2 2 z m 0 0" fill="#d5d3cf"/>
</svg>
